<?xml version="1.0" encoding="UTF-8"?>
<svg version="1.1" xmlns="http://www.w3.org/2000/svg" width="640" height="640">
<path d="M0 0 C2.02862779 0.02013688 4.05727535 0.03837468 6.0859375 0.0546875 C10.97446228 0.09801916 15.86200093 0.16663082 20.75 0.25 C20.75 0.91 20.75 1.57 20.75 2.25 C21.94625 2.3325 23.1425 2.415 24.375 2.5 C30.02188613 3.10245441 35.2956948 4.75254928 40.7109375 6.41015625 C43.70644053 7.38318283 43.70644053 7.38318283 46.75 7.25 C46.75 7.91 46.75 8.57 46.75 9.25 C48.4 9.25 50.05 9.25 51.75 9.25 C51.75 9.91 51.75 10.57 51.75 11.25 C52.61625 11.53875 53.4825 11.8275 54.375 12.125 C55.48875 12.49625 56.6025 12.8675 57.75 13.25 C59.3278125 13.7140625 59.3278125 13.7140625 60.9375 14.1875 C63.77537074 15.2595845 64.75413533 16.08058188 66.75 18.25 C68.38790712 19.29644066 70.06008021 20.2898183 71.75 21.25 C72.34683594 21.60578125 72.94367188 21.9615625 73.55859375 22.328125 C76.9236135 24.50409484 76.9236135 24.50409484 80.75 25.25 C80.75 26.24 80.75 27.23 80.75 28.25 C81.69875 28.4975 82.6475 28.745 83.625 29 C86.75 30.25 86.75 30.25 87.9375 32.3125 C88.3396875 33.2715625 88.3396875 33.2715625 88.75 34.25 C89.74 34.58 90.73 34.91 91.75 35.25 C93.12195574 36.54355827 94.46182656 37.87298702 95.75 39.25 C96.41 38.92 97.07 38.59 97.75 38.25 C97.853125 39.19875 97.95625 40.1475 98.0625 41.125 C98.43539295 44.54107501 98.43539295 44.54107501 101.75 46.25 C101.75 46.91 101.75 47.57 101.75 48.25 C102.41 48.25 103.07 48.25 103.75 48.25 C106.75 51.71153846 106.75 51.71153846 106.75 54.25 C107.41 54.25 108.07 54.25 108.75 54.25 C110.1040932 56.23600337 111.43457624 58.23817543 112.75 60.25 C113.430625 60.91 114.11125 61.57 114.8125 62.25 C117.16372456 64.67707051 118.32367623 67.20285376 119.75 70.25 C120.41 71.24 121.07 72.23 121.75 73.25 C121.75 74.57 121.75 75.89 121.75 77.25 C122.41 77.25 123.07 77.25 123.75 77.25 C124.66513944 79.2914649 125.57683932 81.33450653 126.4765625 83.3828125 C127.36678231 85.38717244 128.28021369 87.38131155 129.2109375 89.3671875 C138.97507443 110.82846308 141.74653677 135.78785795 138.875 159.125 C138.78041504 159.90254639 138.68583008 160.68009277 138.58837891 161.48120117 C138.39715559 163.03356934 138.20307929 164.5855893 138.00585938 166.13720703 C137.78747696 167.94052901 137.61546426 169.74936546 137.453125 171.55859375 C135.74007514 187.24115738 128.15024424 202.49017086 120.75 216.25 C120.09 216.25 119.43 216.25 118.75 216.25 C118.42 216.91 118.09 217.57 117.75 218.25 C117.7406543 217.40518066 117.73130859 216.56036133 117.72167969 215.68994141 C117.69274113 196.11758791 117.69274113 196.11758791 114.9375 176.8125 C114.78442383 176.14234863 114.63134766 175.47219727 114.47363281 174.78173828 C113.21141536 169.91157848 111.08760512 165.66455693 108.75 161.25 C108.31816406 160.37472656 107.88632812 159.49945313 107.44140625 158.59765625 C105.02141424 153.6990565 102.48399872 148.90010537 99.765625 144.16015625 C98.75 142.25 98.75 142.25 97.75 139.25 C97.09 138.92 96.43 138.59 95.75 138.25 C94.92417779 137.19247227 94.13947159 136.10269235 93.375 135 C86.66446465 125.92294736 78.79537797 117.90829021 70.25 110.5625 C69.66283203 110.05750977 69.07566406 109.55251953 68.47070312 109.03222656 C65.70794331 106.71182772 63.09248918 104.6508962 59.75 103.25 C59.75 102.59 59.75 101.93 59.75 101.25 C58.1 100.92 56.45 100.59 54.75 100.25 C54.75 99.59 54.75 98.93 54.75 98.25 C54.21375 97.981875 53.6775 97.71375 53.125 97.4375 C52.34125 97.045625 51.5575 96.65375 50.75 96.25 C49.698125 95.755 48.64625 95.26 47.5625 94.75 C44.75 93.25 44.75 93.25 43.75 91.25 C42.43 91.58 41.11 91.91 39.75 92.25 C39.75 91.26 39.75 90.27 39.75 89.25 C38.698125 88.96125 37.64625 88.6725 36.5625 88.375 C32.75 87.25 32.75 87.25 30.4609375 86.2890625 C27.20459019 85.04095243 23.96537338 84.26017825 20.5625 83.5 C19.33144531 83.21640625 18.10039062 82.9328125 16.83203125 82.640625 C15.81496094 82.51171875 14.79789063 82.3828125 13.75 82.25 C13.09 82.91 12.43 83.57 11.75 84.25 C11.75 82.93 11.75 81.61 11.75 80.25 C3.335 80.745 3.335 80.745 -5.25 81.25 C-5.58 81.91 -5.91 82.57 -6.25 83.25 C-7.04664063 82.96769531 -7.04664063 82.96769531 -7.859375 82.6796875 C-15.27039268 81.34764184 -23.73838406 84.92616977 -29.76171875 89.06640625 C-31.39485455 90.3193207 -31.39485455 90.3193207 -33.25 92.25 C-35.57176742 93.52322729 -37.72587248 94.40862416 -40.25 95.25 C-40.58 95.91 -40.91 96.57 -41.25 97.25 C-41.91 97.25 -42.57 97.25 -43.25 97.25 C-43.3325 97.86875 -43.415 98.4875 -43.5 99.125 C-44.25 101.25 -44.25 101.25 -46.25 102.3125 C-46.91 102.621875 -47.57 102.93125 -48.25 103.25 C-48.745 104.735 -48.745 104.735 -49.25 106.25 C-50.24 106.745 -50.24 106.745 -51.25 107.25 C-51.7140625 108.425625 -51.7140625 108.425625 -52.1875 109.625 C-53.25 112.25 -53.25 112.25 -54.66015625 113.6328125 C-62.26535151 121.36880965 -64.69437863 134.7942161 -65.25 145.25 C-65.30285156 146.22582031 -65.35570312 147.20164062 -65.41015625 148.20703125 C-65.61440333 155.55104595 -64.6543763 162.12381704 -62.90625 169.25390625 C-62.25 172.25 -62.25 172.25 -62.25 176.25 C-61.59 176.58 -60.93 176.91 -60.25 177.25 C-59.5334127 178.89582042 -58.87590004 180.56759952 -58.25 182.25 C-56.94169878 185.11636903 -55.60946474 187.97068081 -54.2734375 190.82421875 C-53.25 193.25 -53.25 193.25 -53.25 195.25 C-52.59 195.25 -51.93 195.25 -51.25 195.25 C-50.92 196.57 -50.59 197.89 -50.25 199.25 C-49.59 199.25 -48.93 199.25 -48.25 199.25 C-47.92 200.57 -47.59 201.89 -47.25 203.25 C-46.59 203.25 -45.93 203.25 -45.25 203.25 C-43.56126121 204.89429829 -41.89694485 206.56384218 -40.25 208.25 C-39.486875 208.806875 -38.72375 209.36375 -37.9375 209.9375 C-37.380625 210.370625 -36.82375 210.80375 -36.25 211.25 C-36.25 211.91 -36.25 212.57 -36.25 213.25 C-35.5590625 213.5078125 -34.868125 213.765625 -34.15625 214.03125 C-29.72760541 215.88842354 -25.60788821 218.27695884 -21.40625 220.59375 C-7.11997634 228.09050746 8.19272298 229.3087972 23.703125 225.23828125 C29.40939169 223.38740244 35.12497739 221.2410726 39.93359375 217.59375 C41.75 216.25 41.75 216.25 43.75 216.25 C43.75 215.59 43.75 214.93 43.75 214.25 C45.42721041 212.68041807 47.21794114 211.3019475 49.0234375 209.8828125 C52.14995434 206.92606128 52.85135678 204.40830212 53.12109375 200.1953125 C53.62194075 180.74541591 47.08423048 166.82017672 33.9609375 152.44140625 C30.8639687 149.37179583 27.71410976 146.80704119 23.9375 144.625 C23.215625 144.17125 22.49375 143.7175 21.75 143.25 C21.75 142.59 21.75 141.93 21.75 141.25 C20.76 141.25 19.77 141.25 18.75 141.25 C18.75 140.59 18.75 139.93 18.75 139.25 C18.01394531 138.96640625 17.27789062 138.6828125 16.51953125 138.390625 C14.06063853 137.37793576 11.78151258 136.24902979 9.4375 135 C4.90892351 132.71531276 0.29743912 130.80409873 -4.4375 129 C-5.10241455 128.74186523 -5.7673291 128.48373047 -6.45239258 128.21777344 C-10.71489705 126.62734201 -14.71796587 125.8366885 -19.25 125.25 C-21.99971743 124.39816137 -24.5753464 123.32924619 -27.25 122.25 C-27.25 121.59 -27.25 120.93 -27.25 120.25 C-8.24250403 110.7965364 16.05391534 107.67661185 36.75 113.25 C37.51183594 113.42144531 38.27367187 113.59289062 39.05859375 113.76953125 C59.30470128 118.92248144 78.93927766 133.13328479 91.75 149.25 C92.3584375 149.82492187 92.966875 150.39984375 93.59375 150.9921875 C96.18212331 153.70247694 98.18532803 156.66316543 100.1875 159.8125 C100.58219482 160.43165283 100.97688965 161.05080566 101.38354492 161.6887207 C104.70830531 167.00382315 107.40988102 172.43015021 109.75 178.25 C110.10707031 179.06082031 110.46414063 179.87164062 110.83203125 180.70703125 C113.2627315 186.63357006 114.48382432 192.58032231 115.5 198.875 C115.62777832 199.66261719 115.75555664 200.45023438 115.88720703 201.26171875 C116.68311748 206.62599845 116.90985596 211.83236063 116.75 217.25 C116.73324219 218.11109375 116.71648437 218.9721875 116.69921875 219.859375 C115.71781829 227.88635194 110.45730027 233.02021823 105.1796875 238.70117188 C103.88439791 240.10440227 102.62726721 241.54261999 101.375 242.984375 C93.47771142 252.06625687 84.78802844 259.62982787 74.75 266.25 C73.90953125 266.82492187 73.0690625 267.39984375 72.203125 267.9921875 C65.30479644 272.58427012 58.12879609 276.1556307 50.55078125 279.45654297 C48.94813009 280.16270027 47.36318495 280.90873715 45.78125 281.66015625 C22.18974751 292.0290021 -11.49112265 292.96279421 -36.25 286.25 C-37.92835938 285.84974609 -37.92835938 285.84974609 -39.640625 285.44140625 C-63.4671883 279.32156979 -84.45361219 267.1111835 -102.25 250.25 C-103.57837891 249.01830078 -103.57837891 249.01830078 -104.93359375 247.76171875 C-110.32412538 242.60057144 -115.00125779 237.24047762 -119.4375 231.25 C-119.91952881 230.60272949 -120.40155762 229.95545898 -120.89819336 229.28857422 C-124.25 224.63154692 -124.25 224.63154692 -124.25 221.25 C-124.91 221.25 -125.57 221.25 -126.25 221.25 C-129.62947611 217.05632667 -131.76250464 212.28790793 -133.5078125 207.23828125 C-134.26605194 205.20699771 -135.17946094 203.35589992 -136.1875 201.4375 C-139.42996434 195.10280134 -142.61456655 188.47622981 -142.25 181.25 C-142.91 181.25 -143.57 181.25 -144.25 181.25 C-152.1731544 140.73815696 -146.1314868 102.66939085 -125.40478516 67.22509766 C-123.6633291 64.2465819 -121.95882984 61.24732683 -120.25 58.25 C-119.59 58.25 -118.93 58.25 -118.25 58.25 C-117.940625 57.2290625 -117.940625 57.2290625 -117.625 56.1875 C-115.82104973 52.33360625 -113.3489655 49.17212236 -110.25 46.25 C-109.59 46.25 -108.93 46.25 -108.25 46.25 C-108.25 45.59 -108.25 44.93 -108.25 44.25 C-107.59 44.25 -106.93 44.25 -106.25 44.25 C-105.92 43.26 -105.59 42.27 -105.25 41.25 C-104.26 40.92 -103.27 40.59 -102.25 40.25 C-101.92 39.26 -101.59 38.27 -101.25 37.25 C-100.59 37.25 -99.93 37.25 -99.25 37.25 C-99.25 36.59 -99.25 35.93 -99.25 35.25 C-98.59 35.25 -97.93 35.25 -97.25 35.25 C-97.25 34.59 -97.25 33.93 -97.25 33.25 C-96.26 33.25 -95.27 33.25 -94.25 33.25 C-94.25 32.59 -94.25 31.93 -94.25 31.25 C-93.59 31.25 -92.93 31.25 -92.25 31.25 C-91.96125 30.63125 -91.6725 30.0125 -91.375 29.375 C-89.54370009 25.91587795 -88.43938523 25.30877473 -84.625 24.125 C-82.954375 23.691875 -82.954375 23.691875 -81.25 23.25 C-81.25 22.59 -81.25 21.93 -81.25 21.25 C-80.321875 20.816875 -79.39375 20.38375 -78.4375 19.9375 C-75.33654089 18.49583739 -75.33654089 18.49583739 -73.625 16.625 C-71.87840948 14.87840948 -70.64943584 14.84679324 -68.25 14.25 C-66.21855646 13.44287612 -64.19834195 12.60716187 -62.1875 11.75 C-59.21884267 10.48767847 -56.31068838 9.27022946 -53.25 8.25 C-52.92 7.26 -52.59 6.27 -52.25 5.25 C-50.95288086 5.1272168 -49.65576172 5.00443359 -48.31933594 4.87792969 C-44.30244597 4.43343696 -40.46114607 3.67169761 -36.53045654 2.75189209 C-24.29555982 -0.05755642 -12.49785128 -0.21984272 0 0 Z " fill="#02BB78" transform="translate(324.25,162.75)"/>
<path d="M0 0 C2.02862779 0.02013688 4.05727535 0.03837468 6.0859375 0.0546875 C10.97446228 0.09801916 15.86200093 0.16663082 20.75 0.25 C20.75 0.91 20.75 1.57 20.75 2.25 C21.94625 2.3325 23.1425 2.415 24.375 2.5 C30.02188613 3.10245441 35.2956948 4.75254928 40.7109375 6.41015625 C43.70644053 7.38318283 43.70644053 7.38318283 46.75 7.25 C46.75 7.91 46.75 8.57 46.75 9.25 C48.4 9.25 50.05 9.25 51.75 9.25 C51.75 9.91 51.75 10.57 51.75 11.25 C52.61625 11.53875 53.4825 11.8275 54.375 12.125 C55.48875 12.49625 56.6025 12.8675 57.75 13.25 C59.3278125 13.7140625 59.3278125 13.7140625 60.9375 14.1875 C63.77537074 15.2595845 64.75413533 16.08058188 66.75 18.25 C68.38790712 19.29644066 70.06008021 20.2898183 71.75 21.25 C72.34683594 21.60578125 72.94367188 21.9615625 73.55859375 22.328125 C76.9236135 24.50409484 76.9236135 24.50409484 80.75 25.25 C80.75 26.24 80.75 27.23 80.75 28.25 C81.69875 28.4975 82.6475 28.745 83.625 29 C86.75 30.25 86.75 30.25 87.9375 32.3125 C88.3396875 33.2715625 88.3396875 33.2715625 88.75 34.25 C89.74 34.58 90.73 34.91 91.75 35.25 C93.12195574 36.54355827 94.46182656 37.87298702 95.75 39.25 C96.41 38.92 97.07 38.59 97.75 38.25 C97.853125 39.19875 97.95625 40.1475 98.0625 41.125 C98.43539295 44.54107501 98.43539295 44.54107501 101.75 46.25 C101.75 46.91 101.75 47.57 101.75 48.25 C102.41 48.25 103.07 48.25 103.75 48.25 C106.75 51.71153846 106.75 51.71153846 106.75 54.25 C107.41 54.25 108.07 54.25 108.75 54.25 C110.1040932 56.23600337 111.43457624 58.23817543 112.75 60.25 C113.430625 60.91 114.11125 61.57 114.8125 62.25 C117.16372456 64.67707051 118.32367623 67.20285376 119.75 70.25 C120.74 71.735 120.74 71.735 121.75 73.25 C121.75 74.57 121.75 75.89 121.75 77.25 C122.41 77.25 123.07 77.25 123.75 77.25 C124.66513944 79.2914649 125.57683932 81.33450653 126.4765625 83.3828125 C127.36678231 85.38717244 128.28021369 87.38131155 129.2109375 89.3671875 C138.97507443 110.82846308 141.74653677 135.78785795 138.875 159.125 C138.78041504 159.90254639 138.68583008 160.68009277 138.58837891 161.48120117 C138.39715559 163.03356934 138.20307929 164.5855893 138.00585938 166.13720703 C137.78747696 167.94052901 137.61546426 169.74936546 137.453125 171.55859375 C135.74007514 187.24115738 128.15024424 202.49017086 120.75 216.25 C120.09 216.25 119.43 216.25 118.75 216.25 C118.42 216.91 118.09 217.57 117.75 218.25 C117.7406543 217.40518066 117.73130859 216.56036133 117.72167969 215.68994141 C117.69274113 196.11758791 117.69274113 196.11758791 114.9375 176.8125 C114.78442383 176.14234863 114.63134766 175.47219727 114.47363281 174.78173828 C113.21141536 169.91157848 111.08760512 165.66455693 108.75 161.25 C108.31816406 160.37472656 107.88632812 159.49945313 107.44140625 158.59765625 C105.02141424 153.6990565 102.48399872 148.90010537 99.765625 144.16015625 C98.75 142.25 98.75 142.25 97.75 139.25 C97.09 138.92 96.43 138.59 95.75 138.25 C94.92417779 137.19247227 94.13947159 136.10269235 93.375 135 C86.66446465 125.92294736 78.79537797 117.90829021 70.25 110.5625 C69.66283203 110.05750977 69.07566406 109.55251953 68.47070312 109.03222656 C65.70794331 106.71182772 63.09248918 104.6508962 59.75 103.25 C59.75 102.59 59.75 101.93 59.75 101.25 C58.1 100.92 56.45 100.59 54.75 100.25 C54.75 99.59 54.75 98.93 54.75 98.25 C54.21375 97.981875 53.6775 97.71375 53.125 97.4375 C52.34125 97.045625 51.5575 96.65375 50.75 96.25 C49.698125 95.755 48.64625 95.26 47.5625 94.75 C44.75 93.25 44.75 93.25 43.75 91.25 C42.43 91.58 41.11 91.91 39.75 92.25 C39.75 91.26 39.75 90.27 39.75 89.25 C38.698125 88.96125 37.64625 88.6725 36.5625 88.375 C32.75 87.25 32.75 87.25 30.4609375 86.2890625 C27.20459019 85.04095243 23.96537338 84.26017825 20.5625 83.5 C19.33144531 83.21640625 18.10039062 82.9328125 16.83203125 82.640625 C15.81496094 82.51171875 14.79789063 82.3828125 13.75 82.25 C13.09 82.91 12.43 83.57 11.75 84.25 C11.75 82.93 11.75 81.61 11.75 80.25 C3.335 80.745 3.335 80.745 -5.25 81.25 C-5.58 81.91 -5.91 82.57 -6.25 83.25 C-7.04664063 82.96769531 -7.04664063 82.96769531 -7.859375 82.6796875 C-15.27039268 81.34764184 -23.73838406 84.92616977 -29.76171875 89.06640625 C-31.39485455 90.3193207 -31.39485455 90.3193207 -33.25 92.25 C-35.57176742 93.52322729 -37.72587248 94.40862416 -40.25 95.25 C-40.58 95.91 -40.91 96.57 -41.25 97.25 C-41.91 97.25 -42.57 97.25 -43.25 97.25 C-43.3325 97.86875 -43.415 98.4875 -43.5 99.125 C-44.25 101.25 -44.25 101.25 -46.25 102.3125 C-46.91 102.621875 -47.57 102.93125 -48.25 103.25 C-48.745 104.735 -48.745 104.735 -49.25 106.25 C-50.24 106.745 -50.24 106.745 -51.25 107.25 C-51.7140625 108.425625 -51.7140625 108.425625 -52.1875 109.625 C-53.25 112.25 -53.25 112.25 -54.66015625 113.6328125 C-62.26535151 121.36880965 -64.69437863 134.7942161 -65.25 145.25 C-65.30285156 146.22582031 -65.35570312 147.20164062 -65.41015625 148.20703125 C-65.61061266 155.41474644 -64.64996447 161.79277902 -62.984375 168.79296875 C-61.89704674 173.9115087 -61.52710468 179.03278776 -61.25 184.25 C-63.25 182.875 -63.25 182.875 -65.25 181.25 C-65.25 180.59 -65.25 179.93 -65.25 179.25 C-66.136875 179.04375 -67.02375 178.8375 -67.9375 178.625 C-72.04242989 176.92106684 -73.58486616 174.75675505 -76.25 171.25 C-76.971875 170.528125 -77.69375 169.80625 -78.4375 169.0625 C-80.25 167.25 -80.25 167.25 -82.25 164.25 C-82.25 163.26 -82.25 162.27 -82.25 161.25 C-82.91 161.25 -83.57 161.25 -84.25 161.25 C-84.25 160.59 -84.25 159.93 -84.25 159.25 C-84.91 159.25 -85.57 159.25 -86.25 159.25 C-86.25 158.59 -86.25 157.93 -86.25 157.25 C-86.91 157.25 -87.57 157.25 -88.25 157.25 C-89.546875 155.59765625 -89.546875 155.59765625 -91 153.3125 C-91.52722656 152.49265625 -92.05445313 151.6728125 -92.59765625 150.828125 C-93.14292969 149.97734375 -93.68820313 149.1265625 -94.25 148.25 C-95.31047216 146.68612299 -96.37289507 145.12356657 -97.4375 143.5625 C-103.25 134.83612205 -103.25 134.83612205 -103.25 131.25 C-103.91 131.25 -104.57 131.25 -105.25 131.25 C-105.25 129.93 -105.25 128.61 -105.25 127.25 C-105.91 127.25 -106.57 127.25 -107.25 127.25 C-112.59670661 117.14803663 -115.40761219 106.26105187 -118.25 95.25 C-118.43369141 94.54230469 -118.61738281 93.83460938 -118.80664062 93.10546875 C-120.65827786 85.74318205 -121.524111 78.56827662 -121.625 71 C-121.63901855 70.27200195 -121.65303711 69.54400391 -121.66748047 68.79394531 C-121.6203804 63.69989141 -121.6203804 63.69989141 -119.8125 61.50390625 C-119.296875 61.09011719 -118.78125 60.67632812 -118.25 60.25 C-117.43871852 58.41728783 -117.43871852 58.41728783 -116.875 56.4375 C-115.38567601 52.17440859 -113.39982651 49.48059129 -110.25 46.25 C-109.59 46.25 -108.93 46.25 -108.25 46.25 C-108.25 45.59 -108.25 44.93 -108.25 44.25 C-107.59 44.25 -106.93 44.25 -106.25 44.25 C-105.92 43.26 -105.59 42.27 -105.25 41.25 C-103.765 40.755 -103.765 40.755 -102.25 40.25 C-101.92 39.26 -101.59 38.27 -101.25 37.25 C-100.59 37.25 -99.93 37.25 -99.25 37.25 C-99.25 36.59 -99.25 35.93 -99.25 35.25 C-98.59 35.25 -97.93 35.25 -97.25 35.25 C-97.25 34.59 -97.25 33.93 -97.25 33.25 C-96.26 33.25 -95.27 33.25 -94.25 33.25 C-94.25 32.59 -94.25 31.93 -94.25 31.25 C-93.59 31.25 -92.93 31.25 -92.25 31.25 C-91.96125 30.63125 -91.6725 30.0125 -91.375 29.375 C-89.54370009 25.91587795 -88.43938523 25.30877473 -84.625 24.125 C-83.51125 23.83625 -82.3975 23.5475 -81.25 23.25 C-81.25 22.59 -81.25 21.93 -81.25 21.25 C-80.321875 20.816875 -79.39375 20.38375 -78.4375 19.9375 C-75.33654089 18.49583739 -75.33654089 18.49583739 -73.625 16.625 C-71.87840948 14.87840948 -70.64943584 14.84679324 -68.25 14.25 C-66.21855646 13.44287612 -64.19834195 12.60716187 -62.1875 11.75 C-59.21884267 10.48767847 -56.31068838 9.27022946 -53.25 8.25 C-52.92 7.26 -52.59 6.27 -52.25 5.25 C-50.95288086 5.1272168 -49.65576172 5.00443359 -48.31933594 4.87792969 C-44.30244597 4.43343696 -40.46114607 3.67169761 -36.53045654 2.75189209 C-24.29555982 -0.05755642 -12.49785128 -0.21984272 0 0 Z " fill="#03F597" transform="translate(324.25,162.75)"/>
<path d="M0 0 C0.76183594 0.17144531 1.52367187 0.34289062 2.30859375 0.51953125 C22.55470128 5.67248144 42.18927766 19.88328479 55 36 C55.6084375 36.57492187 56.216875 37.14984375 56.84375 37.7421875 C59.43212331 40.45247694 61.43532803 43.41316543 63.4375 46.5625 C64.02954224 47.49122925 64.02954224 47.49122925 64.63354492 48.4387207 C67.95830531 53.75382315 70.65988102 59.18015021 73 65 C73.35707031 65.81082031 73.71414063 66.62164062 74.08203125 67.45703125 C76.5127315 73.38357006 77.73382432 79.33032231 78.75 85.625 C78.94166748 86.80642578 78.94166748 86.80642578 79.13720703 88.01171875 C79.93311748 93.37599845 80.15985596 98.58236063 80 104 C79.98324219 104.86109375 79.96648437 105.7221875 79.94921875 106.609375 C78.96781829 114.63635194 73.70730027 119.77021823 68.4296875 125.45117188 C67.13439791 126.85440227 65.87726721 128.29261999 64.625 129.734375 C56.72771142 138.81625687 48.03802844 146.37982787 38 153 C37.15953125 153.57492187 36.3190625 154.14984375 35.453125 154.7421875 C28.01172146 159.69578453 20.16747721 163.42554981 12 167 C11.24283691 167.33845947 10.48567383 167.67691895 9.70556641 168.02563477 C4.13030595 170.03347311 -1.89409357 170.38550089 -7.75 171.125 C-8.44408966 171.21471069 -9.13817932 171.30442139 -9.853302 171.39685059 C-20.26976531 172.73180351 -30.48910806 173.56224682 -41 173 C-41 172.34 -41 171.68 -41 171 C-39.34467377 169.98133771 -37.67739862 168.98189187 -36 168 C-35.67 167.34 -35.34 166.68 -35 166 C-33.68 166 -32.36 166 -31 166 C-31 165.34 -31 164.68 -31 164 C-30.34 164 -29.68 164 -29 164 C-28.731875 163.401875 -28.46375 162.80375 -28.1875 162.1875 C-26.96414758 159.93395607 -26.02039668 158.57141964 -24 157 C-21.3125 156.3125 -21.3125 156.3125 -19 156 C-19 155.34 -19 154.68 -19 154 C-18.34 154 -17.68 154 -17 154 C-17 153.34 -17 152.68 -17 152 C-16.34 152 -15.68 152 -15 152 C-15 151.34 -15 150.68 -15 150 C-14.34 150 -13.68 150 -13 150 C-12.71125 149.401875 -12.4225 148.80375 -12.125 148.1875 C-11 146 -11 146 -9 143 C-8.34 143 -7.68 143 -7 143 C-7 142.01 -7 141.02 -7 140 C-6.34 140 -5.68 140 -5 140 C-4.7525 139.443125 -4.505 138.88625 -4.25 138.3125 C-3 136 -3 136 -1.25 133.9375 C2.07116885 129.60152956 4.47533946 124.8315606 7 120 C7.38542969 119.27039063 7.77085937 118.54078125 8.16796875 117.7890625 C10.47991709 113.30689446 12.43262749 108.7948116 14 104 C14.28101563 103.17371094 14.56203125 102.34742188 14.8515625 101.49609375 C18.14384532 90.43463886 19.54550506 75.94725669 14.2578125 65.31640625 C13.84273438 64.55199219 13.42765625 63.78757812 13 63 C12.56429687 62.03964844 12.12859375 61.07929688 11.6796875 60.08984375 C5.9720994 47.75459188 -2.72960362 36.26040632 -15 30 C-15 29.34 -15 28.68 -15 28 C-15.99 28 -16.98 28 -18 28 C-18 27.34 -18 26.68 -18 26 C-18.73605469 25.71640625 -19.47210938 25.4328125 -20.23046875 25.140625 C-22.68936147 24.12793576 -24.96848742 22.99902979 -27.3125 21.75 C-31.84107649 19.46531276 -36.45256088 17.55409873 -41.1875 15.75 C-41.85241455 15.49186523 -42.5173291 15.23373047 -43.20239258 14.96777344 C-47.46489705 13.37734201 -51.46796587 12.5866885 -56 12 C-58.74971743 11.14816137 -61.3253464 10.07924619 -64 9 C-64 8.34 -64 7.68 -64 7 C-44.99250403 -2.4534636 -20.69608466 -5.57338815 0 0 Z " fill="#03B398" transform="translate(361,276)"/>
<path d="M0 0 C0.33 0 0.66 0 1 0 C1.76326315 19.50561391 -1.51675477 33.95004056 -11 51 C-11.33435059 51.60900146 -11.66870117 52.21800293 -12.01318359 52.84545898 C-13.99946708 56.40569694 -16.126199 59.71767933 -18.625 62.9375 C-19.21539062 63.70964844 -19.80578125 64.48179687 -20.4140625 65.27734375 C-20.93742188 65.84582031 -21.46078125 66.41429687 -22 67 C-22.66 67 -23.32 67 -24 67 C-24 67.99 -24 68.98 -24 70 C-24.66 70 -25.32 70 -26 70 C-26.433125 70.8971875 -26.433125 70.8971875 -26.875 71.8125 C-28 74 -28 74 -30 77 C-30.66 77 -31.32 77 -32 77 C-32 77.66 -32 78.32 -32 79 C-32.66 79 -33.32 79 -34 79 C-34 79.66 -34 80.32 -34 81 C-34.66 81 -35.32 81 -36 81 C-36 81.66 -36 82.32 -36 83 C-38.475 83.495 -38.475 83.495 -41 84 C-41.33 84.99 -41.66 85.98 -42 87 C-43.9375 89.1875 -43.9375 89.1875 -46 91 C-46.66 91 -47.32 91 -48 91 C-48 91.66 -48 92.32 -48 93 C-49.32 93 -50.64 93 -52 93 C-52.37125 93.9590625 -52.37125 93.9590625 -52.75 94.9375 C-54 97 -54 97 -56.125 97.75 C-56.74375 97.8325 -57.3625 97.915 -58 98 C-58 98.66 -58 99.32 -58 100 C-46.81948004 99.62944562 -35.90264448 98.75135336 -24.85668945 96.9284668 C-24.018396 96.79480713 -23.18010254 96.66114746 -22.31640625 96.5234375 C-21.57849854 96.39888184 -20.84059082 96.27432617 -20.08032227 96.14599609 C-17.83031345 95.98809147 -16.14473113 96.33966371 -14 97 C-33.3882053 107.62999866 -69.19463288 105.64089179 -90 100 C-91.11890625 99.73316406 -92.2378125 99.46632813 -93.390625 99.19140625 C-117.2171883 93.07156979 -138.20361219 80.8611835 -156 64 C-156.88558594 63.17886719 -157.77117187 62.35773438 -158.68359375 61.51171875 C-164.07412538 56.35057144 -168.75125779 50.99047762 -173.1875 45 C-173.66952881 44.35272949 -174.15155762 43.70545898 -174.64819336 43.03857422 C-178 38.38154692 -178 38.38154692 -178 35 C-178.66 35 -179.32 35 -180 35 C-184.68584298 29.18522455 -187.28188558 22.19062702 -189 15 C-188.37351563 15.42152344 -187.74703125 15.84304688 -187.1015625 16.27734375 C-185.87566406 17.09912109 -185.87566406 17.09912109 -184.625 17.9375 C-183.81289062 18.48277344 -183.00078125 19.02804687 -182.1640625 19.58984375 C-180.07280816 21.01093879 -180.07280816 21.01093879 -178 22 C-178 22.66 -178 23.32 -178 24 C-177.24074219 24.18175781 -176.48148438 24.36351562 -175.69921875 24.55078125 C-174.70535156 24.80214844 -173.71148437 25.05351562 -172.6875 25.3125 C-171.70136719 25.55613281 -170.71523437 25.79976563 -169.69921875 26.05078125 C-167 27 -167 27 -165.56225586 28.47705078 C-162.9248616 31.04808772 -159.34561613 31.61230552 -155.875 32.5625 C-155.11324463 32.77865967 -154.35148926 32.99481934 -153.56665039 33.2175293 C-148.41286223 34.66248068 -143.24985519 35.95002896 -138 37 C-138 37.66 -138 38.32 -138 39 C-124.79623562 41.60355917 -111.79513631 42.32989489 -98.375 42.375 C-97.59813843 42.38249268 -96.82127686 42.38998535 -96.02087402 42.39770508 C-86.95773039 42.46939582 -78.6420396 42.06522658 -70 39 C-66.47612927 37.82537642 -65.72330752 38.26226004 -62.3125 39.4375 C-46.7634366 43.89476124 -30.00014447 40.66618929 -16 33 C-14.91912109 32.18015625 -14.91912109 32.18015625 -13.81640625 31.34375 C-12 30 -12 30 -10 30 C-10 29.34 -10 28.68 -10 28 C-8.32278959 26.43041807 -6.53205886 25.0519475 -4.7265625 23.6328125 C-1.65570971 20.72870285 -0.76395686 17.82566002 -0.5859375 13.671875 C-0.52792969 12.47304688 -0.52792969 12.47304688 -0.46875 11.25 C-0.4378125 10.425 -0.406875 9.6 -0.375 8.75 C-0.31699219 7.48929687 -0.31699219 7.48929687 -0.2578125 6.203125 C-0.16384164 4.13576618 -0.08084436 2.06791373 0 0 Z " fill="#028773" transform="translate(378,349)"/>
<path d="M0 0 C3.856875 -0.061875 7.71375 -0.12375 11.6875 -0.1875 C13.4986731 -0.22846802 13.4986731 -0.22846802 15.34643555 -0.27026367 C16.308479 -0.27775635 17.27052246 -0.28524902 18.26171875 -0.29296875 C19.24100342 -0.3086792 20.22028809 -0.32438965 21.22924805 -0.34057617 C24.50320435 0.06185303 26.34889846 1.06899378 29 3 C31.51855199 7.12126689 31.08846982 10.39493538 30 15 C28.4375 17.4375 28.4375 17.4375 27 19 C27.969375 19.78375 28.93875 20.5675 29.9375 21.375 C32.65112564 23.5689952 33.86331092 24.80494688 34.2734375 28.390625 C34.58152005 37.06433361 34.58152005 37.06433361 31.8125 40.5625 C27.46158521 44.33329282 23.96150383 45.25627277 18.26171875 45.1953125 C16.81865356 45.18781982 16.81865356 45.18781982 15.34643555 45.18017578 C14.13898682 45.16196777 12.93153809 45.14375977 11.6875 45.125 C7.830625 45.08375 3.97375 45.0425 0 45 C0 30.15 0 15.3 0 0 Z " fill="#02F693" transform="translate(123,468)"/>
<path d="M0 0 C0.05001046 4.08931682 0.08600357 8.17851141 0.10986328 12.26806641 C0.11982603 13.65481676 0.13340118 15.04154665 0.15087891 16.42822266 C0.40314711 36.98066133 0.40314711 36.98066133 -4.4375 43.0625 C-8.81096131 46.36926343 -12.80260432 46.15290396 -18.0625 46.125 C-18.79533203 46.12886719 -19.52816406 46.13273438 -20.28320312 46.13671875 C-25.74663018 46.12668491 -25.74663018 46.12668491 -28 45 C-28 43.02 -28 41.04 -28 39 C-27.21496094 39.09539063 -26.42992187 39.19078125 -25.62109375 39.2890625 C-19.50304214 39.93464831 -14.76940033 40.22908649 -9 38 C-8.67 36.02 -8.34 34.04 -8 32 C-8.54785156 32.32226562 -9.09570312 32.64453125 -9.66015625 32.9765625 C-13.93565437 34.84664682 -18.42962158 34.53649316 -23 34 C-26.91024396 31.9634146 -28.93613479 29.34201048 -30.4921875 25.18359375 C-32.12052345 18.18174916 -32.01124149 10.87853257 -28.24609375 4.625 C-21.39416682 -4.31042822 -9.82622822 -1.02829811 0 0 Z " fill="#02E98C" transform="translate(237,479)"/>
<path d="M0 0 C4.73693385 3.1579559 6.74215146 7.57857528 8 13 C8.88596344 19.94206968 7.82333999 26.12822674 3.6640625 31.83203125 C0.91200562 34.69819781 -1.06916009 35.87739577 -5.0546875 36.40234375 C-13.02332746 36.48833627 -13.02332746 36.48833627 -16 35 C-16 38.96 -16 42.92 -16 47 C-18.31 47 -20.62 47 -23 47 C-23 31.82 -23 16.64 -23 1 C-19.66666667 1 -16.33333333 1 -13 1 C-9.03163213 -0.98418394 -4.31564604 -0.53711369 0 0 Z " fill="#02EA8C" transform="translate(428,478)"/>
<path d="M0 0 C1.65 0 3.3 0 5 0 C5 0.99 5 1.98 5 3 C6.423125 3.37125 6.423125 3.37125 7.875 3.75 C11 5 11 5 12.1875 7.0625 C12.455625 7.701875 12.72375 8.34125 13 9 C13.99 9.33 14.98 9.66 16 10 C17.37195574 11.29355827 18.71182656 12.62298702 20 14 C20.66 13.67 21.32 13.34 22 13 C22.103125 13.94875 22.20625 14.8975 22.3125 15.875 C22.68539295 19.29107501 22.68539295 19.29107501 26 21 C26 21.66 26 22.32 26 23 C26.66 23 27.32 23 28 23 C31 26.46153846 31 26.46153846 31 29 C31.66 29 32.32 29 33 29 C34.3540932 30.98600337 35.68457624 32.98817543 37 35 C37.680625 35.66 38.36125 36.32 39.0625 37 C41.41372456 39.42707051 42.57367623 41.95285376 44 45 C44.66 45.99 45.32 46.98 46 48 C46 49.32 46 50.64 46 52 C46.66 52 47.32 52 48 52 C48.91513944 54.0414649 49.82683932 56.08450653 50.7265625 58.1328125 C51.61678231 60.13717244 52.53021369 62.13131155 53.4609375 64.1171875 C63.22507443 85.57846308 65.99653677 110.53785795 63.125 133.875 C63.03041504 134.65254639 62.93583008 135.43009277 62.83837891 136.23120117 C62.64715559 137.78356934 62.45307929 139.3355893 62.25585938 140.88720703 C62.03747696 142.69052901 61.86546426 144.49936546 61.703125 146.30859375 C59.99007514 161.99115738 52.40024424 177.24017086 45 191 C44.34 191 43.68 191 43 191 C42.67 191.66 42.34 192.32 42 193 C41.9906543 192.15518066 41.98130859 191.31036133 41.97167969 190.43994141 C41.94274113 170.86758791 41.94274113 170.86758791 39.1875 151.5625 C39.03442383 150.89234863 38.88134766 150.22219727 38.72363281 149.53173828 C37.46141536 144.66157848 35.33760512 140.41455693 33 136 C32.56816406 135.12472656 32.13632812 134.24945313 31.69140625 133.34765625 C29.27141424 128.4490565 26.73399872 123.65010537 24.015625 118.91015625 C23 117 23 117 22 114 C21.34 113.67 20.68 113.34 20 113 C18.51685009 110.7427974 17.29481183 108.3738217 16 106 C16.66 106 17.32 106 18 106 C18 106.66 18 107.32 18 108 C18.66 108 19.32 108 20 108 C20.33 107.34 20.66 106.68 21 106 C21 106.99 21 107.98 21 109 C21.9590625 109.37125 21.9590625 109.37125 22.9375 109.75 C23.618125 110.1625 24.29875 110.575 25 111 C25.12375 111.66 25.2475 112.32 25.375 113 C25.58125 113.66 25.7875 114.32 26 115 C28.99615946 116.3045656 28.99615946 116.3045656 32 117 C32.33 116.34 32.66 115.68 33 115 C32.86980469 115.60328125 32.73960937 116.2065625 32.60546875 116.828125 C32.18078885 119.28888705 31.87818437 121.50277968 32 124 C34.40144575 126.15449966 34.40144575 126.15449966 37 128 C37.04320247 130.33293334 37.04022391 132.6670134 37 135 C38.29327628 137.02613283 39.6296945 139.02514795 41 141 C42.85883577 145.98413108 43.21979891 150.72482626 43 156 C43.99 156 44.98 156 46 156 C47.22517308 161.66642551 47.09228867 167.23708518 47 173 C47.66 173.33 48.32 173.66 49 174 C49.84681133 168.91913204 50.09038099 164.15171623 50 159 C50.66 158.67 51.32 158.34 52 158 C52.33 159.32 52.66 160.64 53 162 C53.66 162 54.32 162 55 162 C54.95875 160.96875 54.9175 159.9375 54.875 158.875 C55 155 55 155 55.9765625 152.27734375 C57.41007972 147.68680579 57.42254421 143.25948777 57.56640625 138.48242188 C57.64492341 136.65092374 57.81488435 134.8238099 58 133 C58.66 132.67 59.32 132.34 60 132 C60.09836071 123.78141662 60.0809329 115.58372829 59.625 107.375 C59.55539062 106.10398437 59.48578125 104.83296875 59.4140625 103.5234375 C59.00797561 100.06786794 58.1059872 97.28444684 57 94 C56.5051944 91.2209454 56.18441635 88.43003676 55.875 85.625 C55.78863281 84.88894531 55.70226562 84.15289062 55.61328125 83.39453125 C55.40318115 81.59700818 55.20079233 79.79858658 55 78 C54.34 78 53.68 78 53 78 C52.75765625 77.0821875 52.5153125 76.164375 52.265625 75.21875 C50.4152977 68.44370542 48.47019577 62.14067565 45 56 C42 50.21428571 42 50.21428571 42 48 C41.34 48 40.68 48 40 48 C39.01515892 46.25318707 38.03733813 44.5024149 37.0625 42.75 C36.51722656 41.77546875 35.97195313 40.8009375 35.41015625 39.796875 C34.23389165 37.46389591 33.47898309 35.54649238 33 33 C32.34 33 31.68 33 31 33 C26 27.52380952 26 27.52380952 26 25 C25.360625 24.731875 24.72125 24.46375 24.0625 24.1875 C22 23 22 23 21 20 C20.360625 19.690625 19.72125 19.38125 19.0625 19.0625 C16.49948282 17.74215782 16.2592663 16.5185326 15 14 C14.34 13.67 13.68 13.34 13 13 C11 12 11 12 10.1640625 10.16796875 C8.68439461 7.41221143 6.88818209 6.15151102 4.375 4.3125 C2.90222827 3.22766657 1.43955477 2.12853985 0 1 C0 0.67 0 0.34 0 0 Z " fill="#11C992" transform="translate(400,188)"/>
<path d="M0 0 C0.75990234 -0.020625 1.51980469 -0.04125 2.30273438 -0.0625 C6.93072687 -0.09466676 9.93948327 0.24033553 13.6875 3.25 C16.10954038 6.88306058 15.92052891 8.56819023 15.8828125 12.88671875 C15.87636719 14.18544922 15.86992187 15.48417969 15.86328125 16.82226562 C15.8465706 18.19401307 15.82964071 19.56575786 15.8125 20.9375 C15.80246674 22.32095718 15.79334149 23.70442127 15.78515625 25.08789062 C15.76154967 28.47543452 15.72862037 31.86263072 15.6875 35.25 C13.7075 35.25 11.7275 35.25 9.6875 35.25 C9.3575 34.59 9.0275 33.93 8.6875 33.25 C8.089375 33.745 7.49125 34.24 6.875 34.75 C2.18820725 36.95554953 -2.21603305 36.96166881 -7.3125 36.25 C-10.31447464 34.44881522 -11.76416366 33.34667268 -13.3125 30.25 C-13.81850851 25.56319985 -13.98118839 21.55951475 -11.8125 17.3125 C-5.19592396 11.85382477 1.47724671 11.84250581 9.6875 12.25 C8.60494593 9.69309577 8.60494593 9.69309577 6.6875 7.25 C1.27901205 5.35702922 -4.72375346 6.60361472 -10.3125 7.25 C-10.3125 5.27 -10.3125 3.29 -10.3125 1.25 C-7.0732886 -0.3696057 -3.55545619 0.02376245 0 0 Z " fill="#02EE8E" transform="translate(455.3125,477.75)"/>
<path d="M0 0 C3.06907089 2.23641861 3.98522903 4.05320849 5.24609375 7.63671875 C5.24609375 10.60671875 5.24609375 13.57671875 5.24609375 16.63671875 C-2.67390625 16.96671875 -10.59390625 17.29671875 -18.75390625 17.63671875 C-17.46436476 24.16070876 -17.46436476 24.16070876 -15.00390625 26.51171875 C-11.35822026 28.33456175 -8.50055913 29.10628125 -4.47265625 28.0234375 C-2.90655365 27.48699651 -1.34949998 26.92310459 0.1953125 26.328125 C2.24609375 25.63671875 2.24609375 25.63671875 5.24609375 25.63671875 C5.24609375 27.94671875 5.24609375 30.25671875 5.24609375 32.63671875 C-1.79673707 35.31663916 -9.73796466 36.04455446 -17.078125 33.984375 C-20.64141184 32.1834079 -23.31522126 29.45917474 -25.09375 25.88671875 C-26.96130091 19.52157481 -26.83718981 12.19044567 -24.19140625 6.07421875 C-19.18361587 -2.1219226 -8.45984302 -4.18792229 0 0 Z " fill="#02EE8E" transform="translate(536.75390625,479.36328125)"/>
<path d="M0 0 C3.06907089 2.23641861 3.98522903 4.05320849 5.24609375 7.63671875 C5.24609375 10.60671875 5.24609375 13.57671875 5.24609375 16.63671875 C-2.67390625 16.96671875 -10.59390625 17.29671875 -18.75390625 17.63671875 C-17.46436476 24.16070876 -17.46436476 24.16070876 -15.00390625 26.51171875 C-11.35822026 28.33456175 -8.50055913 29.10628125 -4.47265625 28.0234375 C-2.90655365 27.48699651 -1.34949998 26.92310459 0.1953125 26.328125 C2.24609375 25.63671875 2.24609375 25.63671875 5.24609375 25.63671875 C5.24609375 27.94671875 5.24609375 30.25671875 5.24609375 32.63671875 C-1.79673707 35.31663916 -9.73796466 36.04455446 -17.078125 33.984375 C-20.64141184 32.1834079 -23.31522126 29.45917474 -25.09375 25.88671875 C-26.96130091 19.52157481 -26.83718981 12.19044567 -24.19140625 6.07421875 C-19.18361587 -2.1219226 -8.45984302 -4.18792229 0 0 Z " fill="#02EE8E" transform="translate(333.75390625,479.36328125)"/>
<path d="M0 0 C2.31 0 4.62 0 7 0 C7.33 4.62 7.66 9.24 8 14 C9.32 13.34 10.64 12.68 12 12 C15.72379789 11.47278569 19.27827284 11.44311934 23 12 C25.89683868 14.2015974 27.39297231 15.78594462 29 19 C29.08543895 21.10528933 29.10714725 23.21331157 29.09765625 25.3203125 C29.09443359 26.57714844 29.09121094 27.83398438 29.08789062 29.12890625 C29.07951172 30.44761719 29.07113281 31.76632812 29.0625 33.125 C29.05748489 34.46484211 29.05292201 35.804686 29.04882812 37.14453125 C29.03701086 40.42973206 29.02053617 43.71484397 29 47 C27.02 47 25.04 47 23 47 C22.98018066 46.3294458 22.96036133 45.6588916 22.93994141 44.96801758 C22.84440285 41.91579839 22.73484055 38.86423659 22.625 35.8125 C22.5940625 34.75740234 22.563125 33.70230469 22.53125 32.61523438 C22.49257813 31.59365234 22.45390625 30.57207031 22.4140625 29.51953125 C22.36693115 28.11344604 22.36693115 28.11344604 22.31884766 26.67895508 C21.97977169 23.83004192 21.17742543 21.60479556 20 19 C18.7625 18.95875 17.525 18.9175 16.25 18.875 C15.55390625 18.85179687 14.8578125 18.82859375 14.140625 18.8046875 C11.57815832 18.90751009 11.57815832 18.90751009 8 21 C7.67 29.58 7.34 38.16 7 47 C4.69 47 2.38 47 0 47 C0 31.49 0 15.98 0 0 Z " fill="#02E98C" transform="translate(247,466)"/>
<path d="M0 0 C1.12148438 -0.01417969 2.24296875 -0.02835937 3.3984375 -0.04296875 C6.57384842 0.18384632 8.76734718 0.83359332 11.625 2.1875 C11.625 4.4975 11.625 6.8075 11.625 9.1875 C9.55606611 8.67613085 7.49523992 8.15152001 5.44140625 7.58203125 C0.86797603 6.40102414 -2.06977352 5.68769108 -6.375 8.1875 C-6.375 9.5075 -6.375 10.8275 -6.375 12.1875 C-5.33859375 12.50203125 -4.3021875 12.8165625 -3.234375 13.140625 C-1.86437869 13.57226767 -0.49459814 14.0045956 0.875 14.4375 C1.55691406 14.64246094 2.23882812 14.84742188 2.94140625 15.05859375 C7.09871863 16.3905482 9.98027177 17.65675451 12.625 21.1875 C13.18726974 25.06091377 13.53579682 27.57100946 11.6015625 31.00390625 C9.46055118 33.69639018 7.90954863 35.09265046 4.625 36.1875 C2.33567322 36.30843495 0.04248676 36.36288326 -2.25 36.375 C-3.46429688 36.38917969 -4.67859375 36.40335938 -5.9296875 36.41796875 C-9.21844421 36.19797255 -11.42865948 35.60465618 -14.375 34.1875 C-14.375 31.8775 -14.375 29.5675 -14.375 27.1875 C-13.53582031 27.40019531 -13.53582031 27.40019531 -12.6796875 27.6171875 C-3.60347821 30.02104871 -3.60347821 30.02104871 5.625 29.1875 C5.625 27.2075 5.625 25.2275 5.625 23.1875 C4.51640625 22.95675781 3.4078125 22.72601563 2.265625 22.48828125 C0.80185477 22.15987126 -0.66167483 21.83038743 -2.125 21.5 C-2.85460937 21.35111328 -3.58421875 21.20222656 -4.3359375 21.04882812 C-8.12085095 20.17141637 -10.01371945 19.54138426 -12.85546875 16.7578125 C-14.93220525 13.24497801 -15.00979059 11.20784039 -14.375 7.1875 C-10.75336203 1.00859857 -6.84878473 0.03918069 0 0 Z " fill="#02E68A" transform="translate(385.375,477.8125)"/>
<path d="M0 0 C0 2.31 0 4.62 0 7 C-0.78503906 6.76023437 -1.57007813 6.52046875 -2.37890625 6.2734375 C-8.68659289 4.49335415 -12.89304489 3.36290575 -19 6 C-20.01259619 9.36992013 -20.16555609 12.48897481 -20.1875 16 C-20.20167969 17.03125 -20.21585937 18.0625 -20.23046875 19.125 C-19.99876619 22.01539131 -19.62577871 23.62094382 -18 26 C-11.59325019 29.13521799 -6.51427797 27.19105914 0 25 C0 27.31 0 29.62 0 32 C-5.8715428 34.73349292 -11.635621 34.65645167 -18 34 C-22.04571263 32.52190537 -24.76745012 29.64258138 -27 26 C-29.118806 19.643582 -29.16883265 11.62385172 -26.4375 5.4375 C-20.75965462 -3.85530577 -9.19340875 -4.20943624 0 0 Z " fill="#02E88B" transform="translate(507,480)"/>
<path d="M0 0 C2.31 0 4.62 0 7 0 C7 3.3 7 6.6 7 10 C10.96 10 14.92 10 19 10 C19 11.65 19 13.3 19 15 C15.04 15 11.08 15 7 15 C7.33 22.26 7.66 29.52 8 37 C12.44992574 38.77997029 14.43711531 39.21222719 19 39 C19.042721 40.66611905 19.04063832 42.33382885 19 44 C17.20690039 45.79309961 14.67624022 45.29807043 12.25 45.375 C7.85650912 45.34887936 6.4557454 45.33063882 2.8125 42.6875 C0.28786155 38.94407057 -0.12314121 36.30343017 -0.09765625 31.89453125 C-0.09282227 30.42016602 -0.09282227 30.42016602 -0.08789062 28.91601562 C-0.07951172 27.89185547 -0.07113281 26.86769531 -0.0625 25.8125 C-0.05798828 24.77673828 -0.05347656 23.74097656 -0.04882812 22.67382812 C-0.0370401 20.11582734 -0.02058515 17.55794267 0 15 C-1.32 15 -2.64 15 -4 15 C-4 13.35 -4 11.7 -4 10 C-2.68 10 -1.36 10 0 10 C0 6.7 0 3.4 0 0 Z " fill="#02E88B" transform="translate(286,469)"/>
<path d="M0 0 C2.52737004 1.91731521 2.9716847 2.91505409 4 6 C4.50588195 12.19705385 4.76262822 17.75919641 1 23 C-2.34322751 25.62682161 -5.8862427 25.29918235 -10 25 C-10.99 24.34 -11.98 23.68 -13 23 C-13.34057617 20.84521484 -13.34057617 20.84521484 -13.29296875 18.2109375 C-13.2784668 16.79941406 -13.2784668 16.79941406 -13.26367188 15.359375 C-13.23853516 14.37453125 -13.21339844 13.3896875 -13.1875 12.375 C-13.17396484 11.38242187 -13.16042969 10.38984375 -13.14648438 9.3671875 C-13.11105743 6.91091928 -13.06166196 4.45572715 -13 2 C-5.0875 -1.61875 -5.0875 -1.61875 0 0 Z " fill="#013A32" transform="translate(425,484)"/>
<path d="M0 0 C2.2265625 1.01171875 2.2265625 1.01171875 4 2 C4.14510162 5.27036728 4.23399373 8.53991007 4.3125 11.8125 C4.35439453 12.74126953 4.39628906 13.67003906 4.43945312 14.62695312 C4.48541675 17.17333782 4.46847103 19.49591425 4 22 C1.22967343 24.57449314 -1.30695308 25.44026963 -5.0625 25.5 C-9 25 -9 25 -11.21484375 22.90625 C-13.39765012 19.35262212 -13.53574788 17.14675422 -13.5 13 C-13.5103125 11.80375 -13.520625 10.6075 -13.53125 9.375 C-12.9134188 5.44995472 -11.76037697 3.80157663 -9 1 C-5.97562661 -0.5121867 -3.33758466 -0.17263369 0 0 Z " fill="#013B33" transform="translate(226,483)"/>
<path d="M0 0 C1.65 0 3.3 0 5 0 C5 0.99 5 1.98 5 3 C6.423125 3.37125 6.423125 3.37125 7.875 3.75 C11 5 11 5 12.1875 7.0625 C12.455625 7.701875 12.72375 8.34125 13 9 C13.99 9.33 14.98 9.66 16 10 C17.37195574 11.29355827 18.71182656 12.62298702 20 14 C20.66 13.67 21.32 13.34 22 13 C22.103125 13.94875 22.20625 14.8975 22.3125 15.875 C22.68539295 19.29107501 22.68539295 19.29107501 26 21 C26 21.66 26 22.32 26 23 C26.66 23 27.32 23 28 23 C31 26.46153846 31 26.46153846 31 29 C31.66 29 32.32 29 33 29 C34.3540932 30.98600337 35.68457624 32.98817543 37 35 C37.680625 35.66 38.36125 36.32 39.0625 37 C41.41372456 39.42707051 42.57367623 41.95285376 44 45 C44.66 45.99 45.32 46.98 46 48 C46 49.32 46 50.64 46 52 C46.66 52 47.32 52 48 52 C48.39832031 53.2065625 48.79664063 54.413125 49.20703125 55.65625 C49.74210565 57.27086046 50.27726652 58.88544227 50.8125 60.5 C51.07353516 61.29148438 51.33457031 62.08296875 51.60351562 62.8984375 C52.83178967 66.59842351 54.0905615 70.25995248 55.53125 73.8828125 C62.20302354 91.54274509 62.74241523 110.38022602 62 129 C61.67 129 61.34 129 61 129 C60.9498877 128.1529248 60.89977539 127.30584961 60.84814453 126.43310547 C60.65702296 123.26811499 60.45861341 120.1036866 60.25537109 116.93945312 C60.16914674 115.57407273 60.08576641 114.20850945 60.00537109 112.84277344 C59.8888083 110.87127927 59.76091308 108.90046561 59.6328125 106.9296875 C59.55949707 105.74616699 59.48618164 104.56264648 59.41064453 103.34326172 C58.99833896 99.98647665 58.12603097 97.17795851 57 94 C56.58935547 91.85009766 56.58935547 91.85009766 56.3671875 89.9140625 C56.28339844 89.21152344 56.19960938 88.50898438 56.11328125 87.78515625 C56.03464844 87.07230469 55.95601563 86.35945313 55.875 85.625 C55.78863281 84.88894531 55.70226562 84.15289062 55.61328125 83.39453125 C55.40318115 81.59700818 55.20079233 79.79858658 55 78 C54.34 78 53.68 78 53 78 C52.75765625 77.0821875 52.5153125 76.164375 52.265625 75.21875 C50.4152977 68.44370542 48.47019577 62.14067565 45 56 C42 50.21428571 42 50.21428571 42 48 C41.34 48 40.68 48 40 48 C39.01515892 46.25318707 38.03733813 44.5024149 37.0625 42.75 C36.51722656 41.77546875 35.97195313 40.8009375 35.41015625 39.796875 C34.23389165 37.46389591 33.47898309 35.54649238 33 33 C32.34 33 31.68 33 31 33 C26 27.52380952 26 27.52380952 26 25 C25.360625 24.731875 24.72125 24.46375 24.0625 24.1875 C22 23 22 23 21 20 C20.360625 19.690625 19.72125 19.38125 19.0625 19.0625 C16.49948282 17.74215782 16.2592663 16.5185326 15 14 C14.34 13.67 13.68 13.34 13 13 C11 12 11 12 10.1640625 10.16796875 C8.68439461 7.41221143 6.88818209 6.15151102 4.375 4.3125 C2.90222827 3.22766657 1.43955477 2.12853985 0 1 C0 0.67 0 0.34 0 0 Z " fill="#1CDA9D" transform="translate(400,188)"/>
<path d="M0 0 C2.31 0 4.62 0 7 0 C7 0.99 7 1.98 7 3 C7.804375 2.505 8.60875 2.01 9.4375 1.5 C13.82002454 -0.34527349 17.32315231 -0.28061086 22 0 C22 2.31 22 4.62 22 7 C21.32453125 7.04898437 20.6490625 7.09796875 19.953125 7.1484375 C19.06109375 7.22320312 18.1690625 7.29796875 17.25 7.375 C15.92742187 7.47941406 15.92742187 7.47941406 14.578125 7.5859375 C11.65332423 7.92356937 11.65332423 7.92356937 8 10 C7.67 17.92 7.34 25.84 7 34 C4.69 34 2.38 34 0 34 C0 22.78 0 11.56 0 0 Z " fill="#02E68A" transform="translate(347,479)"/>
<path d="M0 0 C2.31 0 4.62 0 7 0 C7 0.99 7 1.98 7 3 C7.804375 2.505 8.60875 2.01 9.4375 1.5 C13.82002454 -0.34527349 17.32315231 -0.28061086 22 0 C22 2.31 22 4.62 22 7 C21.32453125 7.04898437 20.6490625 7.09796875 19.953125 7.1484375 C19.06109375 7.22320312 18.1690625 7.29796875 17.25 7.375 C15.92742187 7.47941406 15.92742187 7.47941406 14.578125 7.5859375 C11.65332423 7.92356937 11.65332423 7.92356937 8 10 C7.67 17.92 7.34 25.84 7 34 C4.69 34 2.38 34 0 34 C0 22.78 0 11.56 0 0 Z " fill="#02E68A" transform="translate(165,479)"/>
<path d="M0 0 C2.371875 -0.04125 4.74375 -0.0825 7.1875 -0.125 C7.92508545 -0.14320801 8.6626709 -0.16141602 9.42260742 -0.18017578 C13.40002709 -0.21347761 16.47965685 0.10392064 20 2 C21.72306292 5.44612584 21.49788156 9.23131317 21 13 C18.45010637 16.02209615 15.79348083 16.39110322 12 17 C9.89676466 17.0659735 7.79164276 17.08562245 5.6875 17.0625 C3.810625 17.041875 1.93375 17.02125 0 17 C0 11.39 0 5.78 0 0 Z " fill="#013B33" transform="translate(129,491)"/>
<path d="M0 0 C0.66 0 1.32 0 2 0 C2 0.66 2 1.32 2 2 C2.66 2 3.32 2 4 2 C4.33 1.34 4.66 0.68 5 0 C5 0.99 5 1.98 5 3 C5.639375 3.2475 6.27875 3.495 6.9375 3.75 C7.618125 4.1625 8.29875 4.575 9 5 C9.12375 5.66 9.2475 6.32 9.375 7 C9.58125 7.66 9.7875 8.32 10 9 C12.99615946 10.3045656 12.99615946 10.3045656 16 11 C16.33 10.34 16.66 9.68 17 9 C16.86980469 9.60328125 16.73960937 10.2065625 16.60546875 10.828125 C16.18078885 13.28888705 15.87818437 15.50277968 16 18 C18.40144575 20.15449966 18.40144575 20.15449966 21 22 C21.04320247 24.33293334 21.04022391 26.6670134 21 29 C22.29327628 31.02613283 23.6296945 33.02514795 25 35 C26.85883577 39.98413108 27.21979891 44.72482626 27 50 C27.99 50 28.98 50 30 50 C31.14702282 55.25081557 30.93088566 60.06516538 30.5625 65.375 C30.48418945 66.62216797 30.48418945 66.62216797 30.40429688 67.89453125 C30.27561269 69.93008108 30.13864593 71.96510441 30 74 C29.34 74 28.68 74 28 74 C27.89042969 72.69546875 27.78085937 71.3909375 27.66796875 70.046875 C26.35744514 55.23966014 24.0899276 43.22854846 17 30 C16.14053364 28.27346137 15.28606235 26.54442378 14.4375 24.8125 C12.4226401 20.76973904 10.2626382 16.82820775 8.015625 12.91015625 C7 11 7 11 6 8 C5.34 7.67 4.68 7.34 4 7 C2.51685009 4.7427974 1.29481183 2.3738217 0 0 Z " fill="#17C694" transform="translate(416,294)"/>
<path d="M0 0 C2.31 0 4.62 0 7 0 C7 11.22 7 22.44 7 34 C4.69 34 2.38 34 0 34 C0 22.78 0 11.56 0 0 Z " fill="#02E589" transform="translate(191,479)"/>
<path d="M0 0 C0.495 0.99 0.495 0.99 1 2 C0.13689209 1.78561279 0.13689209 1.78561279 -0.74365234 1.56689453 C-7.77133937 -0.02556572 -14.44052752 -0.23848498 -21.625 -0.125 C-22.72457031 -0.11597656 -23.82414062 -0.10695312 -24.95703125 -0.09765625 C-27.63825758 -0.07434124 -30.31900607 -0.0416204 -33 0 C-33.33 0.66 -33.66 1.32 -34 2 C-34.53109375 1.81179687 -35.0621875 1.62359375 -35.609375 1.4296875 C-43.02039268 0.09764184 -51.48838406 3.67616977 -57.51171875 7.81640625 C-59.14485455 9.0693207 -59.14485455 9.0693207 -61 11 C-63.66128684 12.54526333 -64.84915995 13 -68 13 C-67.34 12.67 -66.68 12.34 -66 12 C-66 11.34 -66 10.68 -66 10 C-65.34 10 -64.68 10 -64 10 C-64 8.68 -64 7.36 -64 6 C-47.24932374 -2.89340028 -17.69637945 -11.34383298 0 0 Z " fill="#1BE59B" transform="translate(352,244)"/>
<path d="M0 0 C13.25892857 -0.40178571 13.25892857 -0.40178571 18 3 C17.8125 6.3125 17.8125 6.3125 17 10 C11.69758326 14.22656407 6.4905774 13.21397508 0 13 C0 8.71 0 4.42 0 0 Z " fill="#013D34" transform="translate(129,473)"/>
<path d="M0 0 C0.33 0.66 0.66 1.32 1 2 C0.06553465 4.03144641 -0.93224776 6.03533587 -2 8 C-2.66 8 -3.32 8 -4 8 C-4 8.99 -4 9.98 -4 11 C-4.66 11 -5.32 11 -6 11 C-6.33 13.31 -6.66 15.62 -7 18 C-7.66 18 -8.32 18 -9 18 C-9.103125 18.721875 -9.20625 19.44375 -9.3125 20.1875 C-10.06793947 23.27793421 -11.15531315 25.41743841 -13 28 C-13.66 28 -14.32 28 -15 28 C-15 29.65 -15 31.3 -15 33 C-15.66 33 -16.32 33 -17 33 C-17.19335938 34.12019531 -17.38671875 35.24039063 -17.5859375 36.39453125 C-17.8485886 37.86725349 -18.11162983 39.33990619 -18.375 40.8125 C-18.50132812 41.55048828 -18.62765625 42.28847656 -18.7578125 43.04882812 C-19.40163482 46.60594646 -19.96996056 48.95494084 -22 52 C-22.45601261 54.50896686 -22.45601261 54.50896686 -22.625 57.1875 C-22.69976562 58.08855469 -22.77453125 58.98960937 -22.8515625 59.91796875 C-22.92503906 60.94857422 -22.92503906 60.94857422 -23 62 C-23.66 62 -24.32 62 -25 62 C-25.33 64.64 -25.66 67.28 -26 70 C-26.66 70 -27.32 70 -28 70 C-28.33 71.32 -28.66 72.64 -29 74 C-28.23936179 51.4470772 -19.38471075 31.1791554 -8.15478516 11.97509766 C-6.4133291 8.9965819 -4.70882984 5.99732683 -3 3 C-2.34 3 -1.68 3 -1 3 C-0.67 2.01 -0.34 1.02 0 0 Z " fill="#16AE7B" transform="translate(207,218)"/>
<path d="M0 0 C4.23429756 1.31061591 8.07407404 2.94356259 12 5 C12 5.66 12 6.32 12 7 C12.7425 7.0825 13.485 7.165 14.25 7.25 C17 8 17 8 18.6875 9.875 C21.77086018 12.708358 24.83579887 13.2438706 28.85546875 14.19140625 C29.56316406 14.45824219 30.27085937 14.72507812 31 15 C31.33 15.99 31.66 16.98 32 18 C32.71027344 18.04898437 33.42054688 18.09796875 34.15234375 18.1484375 C35.07144531 18.22320312 35.99054688 18.29796875 36.9375 18.375 C37.85402344 18.44460938 38.77054687 18.51421875 39.71484375 18.5859375 C40.46894531 18.72257812 41.22304688 18.85921875 42 19 C42.495 19.99 42.495 19.99 43 21 C48.99212865 23.62035208 55.39947491 23.70969934 61.83203125 24.2109375 C62.69441406 24.28570312 63.55679688 24.36046875 64.4453125 24.4375 C65.61344482 24.52837891 65.61344482 24.52837891 66.80517578 24.62109375 C69 25 69 25 70.89111328 26.00927734 C73.74073968 27.34798815 76.15701194 27.32519845 79.296875 27.4140625 C80.50214844 27.45273437 81.70742188 27.49140625 82.94921875 27.53125 C84.20347656 27.5621875 85.45773437 27.593125 86.75 27.625 C88.01972656 27.66367187 89.28945313 27.70234375 90.59765625 27.7421875 C93.7316257 27.83644222 96.86558949 27.92205166 100 28 C100 28.33 100 28.66 100 29 C66.34501817 29.61819155 66.34501817 29.61819155 53 26 C51.88109375 25.73316406 50.7621875 25.46632813 49.609375 25.19140625 C32.23550141 20.72893872 13.61464347 12.93283457 0 1 C0 0.67 0 0.34 0 0 Z " fill="#066658" transform="translate(235,423)"/>
<path d="M0 0 C0.33 0 0.66 0 1 0 C1.08115993 3.06303578 1.14057409 6.12390815 1.1875 9.1875 C1.21263672 10.05181641 1.23777344 10.91613281 1.26367188 11.80664062 C1.32021607 16.7259853 1.20059861 19.99728577 -2 24 C-3 25 -4 26 -5 27 C-5.495 28.485 -5.495 28.485 -6 30 C-7.70703125 30.9921875 -7.70703125 30.9921875 -9.8125 31.875 C-13.61284223 33.63944461 -15.54934225 35.55092612 -18 39 C-21.52647386 41.35098257 -23.73065672 41.38204378 -27.84375 41.65625 C-30.29063757 41.89274238 -30.29063757 41.89274238 -33 44 C-35.79599253 44.30459939 -38.50909955 44.51067271 -41.3125 44.625 C-42.05951172 44.66367187 -42.80652344 44.70234375 -43.57617188 44.7421875 C-55.40060105 45.32354662 -55.40060105 45.32354662 -60.8125 44.125 C-61.58207031 43.96257812 -62.35164063 43.80015625 -63.14453125 43.6328125 C-65 43 -65 43 -66 41 C-65.28046143 41.01571045 -64.56092285 41.0314209 -63.81958008 41.04760742 C-37.47286788 41.89354472 -37.47286788 41.89354472 -13.81640625 31.34375 C-12 30 -12 30 -10 30 C-10 29.34 -10 28.68 -10 28 C-8.32278959 26.43041807 -6.53205886 25.0519475 -4.7265625 23.6328125 C-1.65570971 20.72870285 -0.76395686 17.82566002 -0.5859375 13.671875 C-0.54726563 12.87265625 -0.50859375 12.0734375 -0.46875 11.25 C-0.4378125 10.425 -0.406875 9.6 -0.375 8.75 C-0.33632813 7.90953125 -0.29765625 7.0690625 -0.2578125 6.203125 C-0.16384164 4.13576618 -0.08084436 2.06791373 0 0 Z " fill="#0C7468" transform="translate(378,349)"/>
<path d="M0 0 C0.33 0 0.66 0 1 0 C1 8.25 1 16.5 1 25 C2.32 25 3.64 25 5 25 C5.144375 26.155 5.28875 27.31 5.4375 28.5 C5.53160156 29.23863281 5.62570313 29.97726562 5.72265625 30.73828125 C5.96546976 32.71840836 6.1731638 34.70277737 6.375 36.6875 C6.81513337 40.35287299 7.67540477 43.85580093 8.5625 47.4375 C9.85329965 52.81374319 10.2801668 57.49005292 10 63 C10.66 63 11.32 63 12 63 C12 64.98 12 66.96 12 69 C10 68 10 68 8.96484375 65.5234375 C7.1660546 60.01079852 5.5259735 54.78570852 5 49 C4.34 49 3.68 49 3 49 C-0.20018139 32.63716776 -0.33774695 16.63447014 0 0 Z " fill="#0B8B63" transform="translate(177,295)"/>
<path d="M0 0 C0.10824843 1.6026782 0.18570645 3.20745748 0.25 4.8125 C0.29640625 5.70582031 0.3428125 6.59914063 0.390625 7.51953125 C0 10 0 10 -1.765625 11.7734375 C-5.79153378 13.98346435 -9.95366563 14.4197609 -14.4375 13.5 C-16 12 -16 12 -17.0625 8.625 C-17 5 -17 5 -15.25 2.625 C-10.40609577 0.20304789 -5.37466925 0 0 0 Z " fill="#013D34" transform="translate(465,495)"/>
<path d="M0 0 C3.10108967 3.42249112 3.91416901 6.94568194 4.6875 11.375 C4.87856323 12.42107422 4.87856323 12.42107422 5.07348633 13.48828125 C6.22971409 20.34965162 6.29331644 27.04731396 6 34 C6.66 34 7.32 34 8 34 C8 31.69 8 29.38 8 27 C8.99 27.33 9.98 27.66 11 28 C11.66 26.35 12.32 24.7 13 23 C13.99 23 14.98 23 16 23 C16.33 21.35 16.66 19.7 17 18 C18.16261164 21.48783491 17.84754295 22.02515696 16.453125 25.2734375 C16.1025 26.0984375 15.751875 26.9234375 15.390625 27.7734375 C15.01421875 28.63195312 14.6378125 29.49046875 14.25 30.375 C13.8890625 31.22578125 13.528125 32.0765625 13.15625 32.953125 C9.44541331 41.58485383 9.44541331 41.58485383 7 45 C6.34 45 5.68 45 5 45 C4.67 45.66 4.34 46.32 4 47 C3.98541748 46.12899658 3.97083496 45.25799316 3.95581055 44.3605957 C3.89398224 41.06315882 3.81970112 37.76645277 3.73754883 34.46948242 C3.7047254 33.05487268 3.67656804 31.6401453 3.65356445 30.2253418 C3.51204604 21.74326987 2.82487818 13.8159147 0.63208008 5.56323242 C0 3 0 3 0 0 Z " fill="#057A5B" transform="translate(438,334)"/>
<path d="M0 0 C12.31669899 14.79505916 15.06464617 37.74408843 13.8125 56.3125 C12.95673917 60.19633759 12.16023195 61.65531178 9 64 C9.33 62.68 9.66 61.36 10 60 C9.34 60 8.68 60 8 60 C8 59.01 8 58.02 8 57 C9.485 56.505 9.485 56.505 11 56 C10.85953745 53.04132082 10.71287776 50.08317736 10.5625 47.125 C10.52318359 46.28324219 10.48386719 45.44148438 10.44335938 44.57421875 C10.38051758 43.36572266 10.38051758 43.36572266 10.31640625 42.1328125 C10.27974854 41.38918457 10.24309082 40.64555664 10.20532227 39.87939453 C10.10044135 37.91135688 10.10044135 37.91135688 9 36 C8.34 36.66 7.68 37.32 7 38 C7.02320313 37.09378906 7.04640625 36.18757813 7.0703125 35.25390625 C7.80496701 23.64060022 7.80496701 23.64060022 3.5 13.40234375 C3.005 12.93957031 2.51 12.47679687 2 12 C-0.13431596 7.95603293 -0.17742222 4.5242666 0 0 Z " fill="#119F86" transform="translate(427,328)"/>
<path d="M0 0 C1.65 0 3.3 0 5 0 C5 0.99 5 1.98 5 3 C6.423125 3.37125 6.423125 3.37125 7.875 3.75 C11 5 11 5 12.1875 7.0625 C12.455625 7.701875 12.72375 8.34125 13 9 C13.99 9.33 14.98 9.66 16 10 C17.37195574 11.29355827 18.71182656 12.62298702 20 14 C20.66 13.67 21.32 13.34 22 13 C22.103125 13.94875 22.20625 14.8975 22.3125 15.875 C22.68539295 19.29107501 22.68539295 19.29107501 26 21 C26 21.66 26 22.32 26 23 C26.66 23 27.32 23 28 23 C31 26.46153846 31 26.46153846 31 29 C31.66 29 32.32 29 33 29 C34.3540932 30.98600337 35.68457624 32.98817543 37 35 C37.680625 35.66 38.36125 36.32 39.0625 37 C41.41372456 39.42707051 42.57367623 41.95285376 44 45 C44.66 45.99 45.32 46.98 46 48 C45.625 50.1875 45.625 50.1875 45 52 C44.54109375 51.20335937 44.0821875 50.40671875 43.609375 49.5859375 C38.86628269 39.61259205 38.86628269 39.61259205 31 33 C26 27.53488372 26 27.53488372 26 25 C25.360625 24.731875 24.72125 24.46375 24.0625 24.1875 C22 23 22 23 21 20 C20.360625 19.690625 19.72125 19.38125 19.0625 19.0625 C16.49948282 17.74215782 16.2592663 16.5185326 15 14 C14.34 13.67 13.68 13.34 13 13 C11 12 11 12 10.1640625 10.16796875 C8.68439461 7.41221143 6.88818209 6.15151102 4.375 4.3125 C2.90222827 3.22766657 1.43955477 2.12853985 0 1 C0 0.67 0 0.34 0 0 Z " fill="#14A772" transform="translate(400,188)"/>
<path d="M0 0 C7.30873488 3.40633345 13.1033951 8.45575674 17.61328125 15.10546875 C18.99028826 17.0907111 18.99028826 17.0907111 20.93359375 18.91796875 C23.17004617 21.17133197 24.93302278 23.52377193 26.75 26.125 C27.67039062 27.42824219 27.67039062 27.42824219 28.609375 28.7578125 C30 31 30 31 30 33 C29.34 33 28.68 33 28 33 C26.0276801 31.0276801 25.10526098 29.52631081 24 27 C24 26.34 24 25.68 24 25 C22.35 25 20.7 25 19 25 C19 24.01 19 23.02 19 22 C17.68 22 16.36 22 15 22 C14.67 22.99 14.34 23.98 14 25 C13.34 25 12.68 25 12 25 C12 24.34 12 23.68 12 23 C12.66 23 13.32 23 14 23 C13.34 22.01 12.68 21.02 12 20 C11.20592293 17.50967454 10.54592123 14.99969013 9.87890625 12.47265625 C8.94152811 9.83549908 7.86196763 8.08046383 6 6 C4.9790625 5.7834375 4.9790625 5.7834375 3.9375 5.5625 C3.298125 5.376875 2.65875 5.19125 2 5 C0.75 2.4375 0.75 2.4375 0 0 Z " fill="#0BA085" transform="translate(397,295)"/>
<path d="M0 0 C2 1.8125 2 1.8125 3 4 C3 5.32 3 6.64 3 8 C-3.27 8 -9.54 8 -16 8 C-13 1 -13 1 -10.8125 -0.5 C-6.79857581 -1.21358652 -4.0083588 -0.90511328 0 0 Z " fill="#023D34" transform="translate(533,484)"/>
<path d="M0 0 C2 1.8125 2 1.8125 3 4 C3 5.32 3 6.64 3 8 C-3.27 8 -9.54 8 -16 8 C-13 1 -13 1 -10.8125 -0.5 C-6.79857581 -1.21358652 -4.0083588 -0.90511328 0 0 Z " fill="#013D34" transform="translate(330,484)"/>
<path d="M0 0 C0.66 1.32 1.32 2.64 2 4 C2.66 4 3.32 4 4 4 C4.33 5.32 4.66 6.64 5 8 C5.66 8 6.32 8 7 8 C7.33 9.32 7.66 10.64 8 12 C8.66 12 9.32 12 10 12 C11.68873879 13.64429829 13.35305515 15.31384218 15 17 C15.763125 17.556875 16.52625 18.11375 17.3125 18.6875 C17.869375 19.120625 18.42625 19.55375 19 20 C19 20.66 19 21.32 19 22 C19.68707031 22.25652344 20.37414062 22.51304687 21.08203125 22.77734375 C24.41297724 24.17304133 27.5182189 25.83150154 30.6875 27.5625 C34.81817748 29.83019582 34.81817748 29.83019582 39 32 C37.35 32.66 35.7 33.32 34 34 C34 33.34 34 32.68 34 32 C33.01 32 32.02 32 31 32 C31 31.34 31 30.68 31 30 C29.948125 29.896875 28.89625 29.79375 27.8125 29.6875 C22.60966283 28.74928346 19.5904817 26.75368542 16 23 C15.01 22.34 14.02 21.68 13 21 C13 20.34 13 19.68 13 19 C12.236875 18.814375 11.47375 18.62875 10.6875 18.4375 C6.92220183 16.42350331 6.54349804 13.89229941 5 10 C4.29875 9.319375 3.5975 8.63875 2.875 7.9375 C0.43973468 5.42105917 0.31094854 3.42043392 0 0 Z " fill="#119065" transform="translate(269,354)"/>
<path d="M0 0 C0.92425781 0.24105469 1.84851563 0.48210937 2.80078125 0.73046875 C9.63468137 2.63468137 9.63468137 2.63468137 12 5 C11.45472656 4.86722656 10.90945313 4.73445313 10.34765625 4.59765625 C5.62930276 3.49267432 0.99870524 2.68521588 -3.82421875 2.21875 C-5.84768736 2.0153133 -7.86242424 1.72964809 -9.875 1.4375 C-18.89017164 0.3052183 -28.14248297 1.07066629 -37.1875 1.5 C-38.23486328 1.54769531 -39.28222656 1.59539062 -40.36132812 1.64453125 C-42.90766299 1.76080225 -45.45387089 1.87932125 -48 2 C-39.28332744 -6.71667256 -10.83217741 -2.95752918 0 0 Z " fill="#0C806C" transform="translate(361,276)"/>
<path d="M0 0 C11.75136881 10.28670545 12.54709144 34.20748278 13.703125 48.7109375 C14.19541355 56.20645031 14.27694341 63.70941966 13.5 71.1875 C13.4071875 72.10917969 13.314375 73.03085937 13.21875 73.98046875 C13.1465625 74.64691406 13.074375 75.31335938 13 76 C12.67 76 12.34 76 12 76 C11.99589111 75.13125244 11.99178223 74.26250488 11.98754883 73.36743164 C11.79256851 49.68122231 10.42337587 26.9671421 1.13671875 4.81640625 C0 2 0 2 0 0 Z " fill="#026A4B" transform="translate(450,248)"/>
<path d="M0 0 C1.32 0.33 2.64 0.66 4 1 C-6.35418974 9.52584768 -17.73043694 15.72072436 -30 21 C-30.92554688 21.39832031 -31.85109375 21.79664063 -32.8046875 22.20703125 C-35.41292081 23.14915111 -36.44318615 22.98973439 -39 22 C-40.32 21.34 -41.64 20.68 -43 20 C-37.72 19.34 -32.44 18.68 -27 18 C-27 17.34 -27 16.68 -27 16 C-25.2984375 15.5978125 -25.2984375 15.5978125 -23.5625 15.1875 C-22.386875 14.795625 -21.21125 14.40375 -20 14 C-19.67 13.01 -19.34 12.02 -19 11 C-16.66666667 10.33333333 -14.33333333 9.66666667 -12 9 C-11.67 8.01 -11.34 7.02 -11 6 C-10.05125 5.896875 -9.1025 5.79375 -8.125 5.6875 C-4.70892499 5.31460705 -4.70892499 5.31460705 -3 2 C-2.01 2 -1.02 2 0 2 C0 1.34 0 0.68 0 0 Z " fill="#0C9079" transform="translate(403,422)"/>
<path d="M0 0 C-14.34983348 7.87732725 -34.28111183 6.42336389 -50 5 C-48.38191662 3.03743807 -47.53821805 2.07779591 -44.97314453 1.70703125 C-44.20083496 1.74183594 -43.42852539 1.77664063 -42.6328125 1.8125 C-41.31869385 1.85008423 -41.31869385 1.85008423 -39.97802734 1.88842773 C-39.03652832 1.92524658 -38.0950293 1.96206543 -37.125 2 C-28.10757013 2.20477112 -19.58895098 1.50515014 -10.70361328 -0.02148438 C-9.88103027 -0.16005859 -9.05844727 -0.29863281 -8.2109375 -0.44140625 C-7.49212402 -0.57232666 -6.77331055 -0.70324707 -6.03271484 -0.83813477 C-3.79738384 -1.01613434 -2.13168507 -0.65652544 0 0 Z " fill="#0E8D78" transform="translate(364,446)"/>
<path d="M0 0 C-3.08809695 1.76462683 -4.23312136 2 -8 2 C-8.33 2.99 -8.66 3.98 -9 5 C-11.87109375 6.1328125 -11.87109375 6.1328125 -15.4375 7.125 C-19.82234893 8.29409251 -19.82234893 8.29409251 -24 10 C-25.2375 10.12375 -25.2375 10.12375 -26.5 10.25 C-30.74137579 11.15886624 -34.04394597 12.96349764 -37.828125 15.0390625 C-38.54484375 15.35617188 -39.2615625 15.67328125 -40 16 C-40.66 15.67 -41.32 15.34 -42 15 C-39.72334005 11.58501008 -39.67937659 11.7652083 -36 11 C-33.96855646 10.19287612 -31.94834195 9.35716187 -29.9375 8.5 C-26.96884267 7.23767847 -24.06068838 6.02022946 -21 5 C-20.67 4.01 -20.34 3.02 -20 2 C-19.41992188 1.93941406 -18.83984375 1.87882813 -18.2421875 1.81640625 C-14.72205439 1.43883422 -11.2398637 1.04151487 -7.75 0.4375 C-5.11309029 0.01799164 -2.6643499 -0.07836323 0 0 Z " fill="#1AD993" transform="translate(292,166)"/>
<path d="M0 0 C0 0.66 0 1.32 0 2 C-0.9065332 1.98952637 -1.81306641 1.97905273 -2.74707031 1.96826172 C-6.16897212 1.93380719 -9.59068478 1.90892246 -13.01269531 1.89013672 C-14.48277733 1.88019073 -15.95284016 1.86662909 -17.42285156 1.84912109 C-25.59388459 1.75436832 -33.44802031 1.9305666 -41.5 3.5546875 C-45.05180213 4.18735225 -48.40253962 4.13836386 -52 4 C-39.96402014 -3.24679416 -12.89226462 -4.29742154 0 0 Z " fill="#19E99F" transform="translate(336,165)"/>
<path d="M0 0 C0.66 0 1.32 0 2 0 C2 0.66 2 1.32 2 2 C2.66 2 3.32 2 4 2 C4.33 1.34 4.66 0.68 5 0 C5 0.99 5 1.98 5 3 C5.61230469 3.21140625 6.22460938 3.4228125 6.85546875 3.640625 C9.84884907 5.53806826 10.19498069 7.41776061 11.3125 10.75 C13.57724308 17.10680222 16.38184634 22.87072476 19.546875 28.80859375 C20.97414149 31.9432086 21.60955442 34.59387608 22 38 C18.71785755 35.32169385 17.61565856 32.05597715 16.0625 28.1875 C14.12502741 23.36706819 11.9930555 19.24879773 9 15 C6 10.28571429 6 10.28571429 6 8 C5.34 7.67 4.68 7.34 4 7 C2.51685009 4.7427974 1.29481183 2.3738217 0 0 Z " fill="#10A97B" transform="translate(416,294)"/>
<path d="M0 0 C0.33 0.66 0.66 1.32 1 2 C0.06553465 4.03144641 -0.93224776 6.03533587 -2 8 C-2.66 8 -3.32 8 -4 8 C-4 8.99 -4 9.98 -4 11 C-4.66 11 -5.32 11 -6 11 C-6.33 13.31 -6.66 15.62 -7 18 C-7.66 18 -8.32 18 -9 18 C-9.1546875 19.0828125 -9.1546875 19.0828125 -9.3125 20.1875 C-10.06793947 23.27793421 -11.15531315 25.41743841 -13 28 C-13.66 28 -14.32 28 -15 28 C-15 29.65 -15 31.3 -15 33 C-15.66 33 -16.32 33 -17 33 C-17.99 35.475 -17.99 35.475 -19 38 C-20 35 -20 35 -18.6640625 31.76953125 C-17.99560484 30.44479432 -17.31505602 29.12611572 -16.625 27.8125 C-16.26792969 27.11576172 -15.91085938 26.41902344 -15.54296875 25.70117188 C-11.56853184 18.0204694 -7.30720265 10.49772313 -3 3 C-2.34 3 -1.68 3 -1 3 C-0.67 2.01 -0.34 1.02 0 0 Z " fill="#0C8A63" transform="translate(207,218)"/>
<path d="M0 0 C8.47082991 1.80525883 8.47082991 1.80525883 11 5 C11.99 5.66 12.98 6.32 14 7 C14 7.66 14 8.32 14 9 C16.97 9.495 16.97 9.495 20 10 C20.061875 10.886875 20.12375 11.77375 20.1875 12.6875 C21.18171055 16.74081992 22.90101124 18.29831749 26 21 C25.67 21.66 25.34 22.32 25 23 C24.62230469 22.59910156 24.24460937 22.19820313 23.85546875 21.78515625 C17.95893339 15.69529186 11.526976 9.61891173 4.1640625 5.359375 C3.44992187 4.91078125 2.73578125 4.4621875 2 4 C2 3.34 2 2.68 2 2 C1.34 2 0.68 2 0 2 C0 1.34 0 0.68 0 0 Z " fill="#109B6F" transform="translate(382,262)"/>
<path d="M0 0 C0.66 0.66 1.32 1.32 2 2 C1.19175781 2.51949219 0.38351563 3.03898438 -0.44921875 3.57421875 C-1.51785156 4.27160156 -2.58648437 4.96898437 -3.6875 5.6875 C-4.74324219 6.37199219 -5.79898438 7.05648437 -6.88671875 7.76171875 C-9.94098996 9.95757497 -12.40162725 12.29014591 -15 15 C-16.38124543 16.28667367 -17.77587102 17.55923559 -19.1875 18.8125 C-19.86167969 19.41707031 -20.53585938 20.02164063 -21.23046875 20.64453125 C-23 22 -23 22 -25 22 C-25.33 22.99 -25.66 23.98 -26 25 C-28.0625 25.6875 -28.0625 25.6875 -30 26 C-29.505 24.515 -29.505 24.515 -29 23 C-28.01 22.67 -27.02 22.34 -26 22 C-25.67 21.01 -25.34 20.02 -25 19 C-24.34 19 -23.68 19 -23 19 C-23 18.34 -23 17.68 -23 17 C-22.34 17 -21.68 17 -21 17 C-21 16.34 -21 15.68 -21 15 C-20.01 15 -19.02 15 -18 15 C-18 14.34 -18 13.68 -18 13 C-17.34 13 -16.68 13 -16 13 C-15.566875 12.071875 -15.566875 12.071875 -15.125 11.125 C-13.29370009 7.66587795 -12.18938523 7.05877473 -8.375 5.875 C-7.26125 5.58625 -6.1475 5.2975 -5 5 C-5 4.34 -5 3.68 -5 3 C-2.5 1.375 -2.5 1.375 0 0 Z " fill="#12A873" transform="translate(248,181)"/>
<path d="M0 0 C1.32 0 2.64 0 4 0 C5.33583899 4.84241633 6.25328119 8.93437617 6 14 C6.99 14.33 7.98 14.66 9 15 C9.02901394 18.4374823 9.04680335 21.87493312 9.0625 25.3125 C9.07506836 26.77719727 9.07506836 26.77719727 9.08789062 28.27148438 C9.09111328 29.20927734 9.09433594 30.14707031 9.09765625 31.11328125 C9.10289307 31.97735596 9.10812988 32.84143066 9.11352539 33.73168945 C9 36 9 36 8 39 C7.34 39 6.68 39 6 39 C6.02094727 38.38592285 6.04189453 37.7718457 6.06347656 37.13916016 C6.14768034 34.30127983 6.19898423 31.46366348 6.25 28.625 C6.28351563 27.65949219 6.31703125 26.69398438 6.3515625 25.69921875 C6.43473063 19.50319274 5.56993489 14.82842122 2.98828125 9.18164062 C1.63343251 6.19079864 0.82745501 3.17191087 0 0 Z " fill="#1CA28F" transform="translate(372,332)"/>
<path d="M0 0 C2 2 2 2 2.22705078 4.98095703 C2.21657715 6.22731934 2.20610352 7.47368164 2.1953125 8.7578125 C2.1924826 9.42086395 2.18965271 10.08391541 2.18673706 10.76705933 C2.17553435 12.88655583 2.15043051 15.00563104 2.125 17.125 C2.11497028 18.56119182 2.10584441 19.99739025 2.09765625 21.43359375 C2.075595 24.95586628 2.04106494 28.47789203 2 32 C1.01 32 0.02 32 -1 32 C-1.02901401 27.41667994 -1.04680348 22.83338349 -1.0625 18.25 C-1.07087891 16.94804687 -1.07925781 15.64609375 -1.08789062 14.3046875 C-1.09111328 13.05429687 -1.09433594 11.80390625 -1.09765625 10.515625 C-1.10289307 9.36352539 -1.10812988 8.21142578 -1.11352539 7.02441406 C-1.01804485 4.48073036 -0.74917261 2.41601687 0 0 Z " fill="#0EB37C" transform="translate(179,288)"/>
<path d="M0 0 C1.44037669 0.93307421 2.87718985 1.87165077 4.3125 2.8125 C5.11300781 3.33457031 5.91351563 3.85664063 6.73828125 4.39453125 C8.74000268 5.81544231 10.41626519 7.12924529 12 9 C12 9.66 12 10.32 12 11 C11.01 11.495 11.01 11.495 10 12 C10.66 13.98 11.32 15.96 12 18 C11.34 18.33 10.68 18.66 10 19 C4.38122793 13.18120692 1.90302722 7.87399335 0 0 Z " fill="#067A65" transform="translate(189,364)"/>
<path d="M0 0 C1.15941038 3.47823115 0.70820884 5.45895578 0 9 C0.825 9.515625 1.65 10.03125 2.5 10.5625 C5 13 5 13 5.0625 16.375 C5.041875 17.57125 5.02125 18.7675 5 20 C6.8646306 23.3832553 6.8646306 23.3832553 9 26 C8.34 26.33 7.68 26.66 7 27 C7 26.34 7 25.68 7 25 C6.34 25 5.68 25 5 25 C3.50742475 22.13177314 2.03343687 19.25437567 0.5625 16.375 C0.14162109 15.56675781 -0.27925781 14.75851562 -0.71289062 13.92578125 C-2.90719642 9.60738744 -4.56369173 5.90251833 -5 1 C-2.525 1.495 -2.525 1.495 0 2 C0 1.34 0 0.68 0 0 Z " fill="#15D497" transform="translate(432,303)"/>
<path d="M0 0 C3.44248059 3.14785388 5.85921194 6.65806277 8.25 10.625 C8.61351562 11.21023437 8.97703125 11.79546875 9.3515625 12.3984375 C12 16.73948543 12 16.73948543 12 19 C12.99 19 13.98 19 15 19 C15.99 22.3 16.98 25.6 18 29 C17.34 29.66 16.68 30.32 16 31 C15.02890359 29.05780718 14.05818268 27.11544495 13.08984375 25.171875 C12.15822495 23.31531568 11.20616707 21.4690365 10.25 19.625 C9 17 9 17 9 15 C8.34 15 7.68 15 7 15 C6.01515892 13.25318707 5.03733813 11.5024149 4.0625 9.75 C3.51722656 8.77546875 2.97195313 7.8009375 2.41015625 6.796875 C1.23389165 4.46389591 0.47898309 2.54649238 0 0 Z " fill="#1ABE86" transform="translate(433,221)"/>
<path d="M0 0 C2.31 0 4.62 0 7 0 C7 0.66 7 1.32 7 2 C8.65 2 10.3 2 12 2 C12 2.66 12 3.32 12 4 C13.299375 4.433125 13.299375 4.433125 14.625 4.875 C15.73875 5.24625 16.8525 5.6175 18 6 C19.051875 6.309375 20.10375 6.61875 21.1875 6.9375 C24.02537074 8.0095845 25.00413533 8.83058188 27 11 C27.804375 11.474375 28.60875 11.94875 29.4375 12.4375 C32.04626794 14.02821216 33.9256965 15.77204439 36 18 C30.15301478 15.90077813 24.80885097 12.7212374 19.38867188 9.72070312 C14.36258193 7.01186268 9.5943639 5.11855838 4.0378418 3.77124023 C2 3 2 3 0 0 Z " fill="#026C46" transform="translate(364,170)"/>
<path d="M0 0 C5.75224815 0.26630778 10.08647845 1.22852019 15.13671875 4.01171875 C17.65543942 5.34764397 20.27564404 6.18269321 23 7 C23 7.99 23 8.98 23 10 C23.66 10 24.32 10 25 10 C25 10.99 25 11.98 25 13 C24.01 13 23.02 13 22 13 C22 12.34 22 11.68 22 11 C21.27554687 10.72027344 20.55109375 10.44054687 19.8046875 10.15234375 C17.16657072 9.06843783 14.66179116 7.86331464 12.125 6.5625 C8.13715494 4.54469816 4.12995836 2.70585237 0 1 C0 0.67 0 0.34 0 0 Z " fill="#0D8472" transform="translate(321,291)"/>
<path d="M0 0 C0.33 0 0.66 0 1 0 C1.32809461 12.15772787 0.86841404 23.71413108 -4 35 C-5.36333787 31.59165533 -4.56659269 29.4641667 -3.48925781 26.07373047 C-2.5205705 21.96792707 -2.79649382 17.75654175 -2.875 13.5625 C-2.88402344 12.64017578 -2.89304687 11.71785156 -2.90234375 10.76757812 C-2.9257234 8.51144191 -2.95849084 6.25586316 -3 4 C-2.34 3.67 -1.68 3.34 -1 3 C-0.67 2.01 -0.34 1.02 0 0 Z " fill="#0B9B6F" transform="translate(461,317)"/>
<path d="M0 0 C2.475 0.495 2.475 0.495 5 1 C5 1.66 5 2.32 5 3 C5.61875 3.061875 6.2375 3.12375 6.875 3.1875 C7.57625 3.455625 8.2775 3.72375 9 4 C9.309375 4.804375 9.61875 5.60875 9.9375 6.4375 C10.7515868 9.21956416 10.7515868 9.21956416 13.4375 10.125 C14.7059375 10.558125 14.7059375 10.558125 16 11 C17.8125 12.4375 17.8125 12.4375 19 14 C19 14.99 19 15.98 19 17 C11.61899906 13.64499957 5.38731657 6.95971896 0 1 C0 0.67 0 0.34 0 0 Z " fill="#0B6F61" transform="translate(216,406)"/>
<path d="M0 0 C0.33 0 0.66 0 1 0 C1.0093457 0.5983667 1.01869141 1.1967334 1.02832031 1.81323242 C1.33103083 17.36108956 1.33103083 17.36108956 5.078125 32.34765625 C6.3167369 35.91128964 6.70601788 39.25172795 7 43 C4.0810761 40.64602911 3.08196635 39.43442167 2.375 35.6875 C2.25125 34.470625 2.1275 33.25375 2 32 C1.66484375 31.03578125 1.3296875 30.0715625 0.984375 29.078125 C-0.65296448 23.54309373 -0.20947447 17.77752263 -0.125 12.0625 C-0.11597656 10.90169922 -0.10695312 9.74089844 -0.09765625 8.54492188 C-0.07421162 5.69639892 -0.04139522 2.84830922 0 0 Z " fill="#1FDD9C" transform="translate(256,304)"/>
<path d="M0 0 C0.33 0.66 0.66 1.32 1 2 C0.50371094 2.40089844 0.00742188 2.80179688 -0.50390625 3.21484375 C-5.79132024 7.63941599 -9.9561607 12.42708396 -14 18 C-15 15 -15 15 -14.375 12.6875 C-12.62428256 9.26564318 -10.62198273 6.81863144 -8 4 C-7.34 4 -6.68 4 -6 4 C-6 3.34 -6 2.68 -6 2 C-4.02 1.34 -2.04 0.68 0 0 Z " fill="#16BD83" transform="translate(222,205)"/>
<path d="M0 0 C0 3 0 3 -2.23046875 5.55859375 C-3.20852032 6.52599986 -4.1945766 7.48536421 -5.1875 8.4375 C-5.67025391 8.91509766 -6.15300781 9.39269531 -6.65039062 9.88476562 C-9.62211068 12.79266351 -12.712153 15.45747846 -16 18 C-16.66 17.67 -17.32 17.34 -18 17 C-17.34 15.35 -16.68 13.7 -16 12 C-15.34 12 -14.68 12 -14 12 C-13.814375 11.401875 -13.62875 10.80375 -13.4375 10.1875 C-11.65415641 7.47371627 -9.78593353 6.97613606 -6.8203125 5.859375 C-3.95710872 4.50764789 -2.08094759 2.33318366 0 0 Z " fill="#098171" transform="translate(425,404)"/>
<path d="M0 0 C0.33 0 0.66 0 1 0 C1.08115993 3.06303578 1.14057409 6.12390815 1.1875 9.1875 C1.21263672 10.05181641 1.23777344 10.91613281 1.26367188 11.80664062 C1.32021607 16.7259853 1.20059861 19.99728577 -2 24 C-3 25 -4 26 -5 27 C-5.33 27.99 -5.66 28.98 -6 30 C-7.77734375 31.09765625 -7.77734375 31.09765625 -9.9375 32.0625 C-12.50887099 33.22451702 -13.97683978 33.97683978 -16 36 C-18.125 35.625 -18.125 35.625 -20 35 C-16.75490696 32.96022723 -13.59391114 31.33488128 -10 30 C-10 29.34 -10 28.68 -10 28 C-8.32278959 26.43041807 -6.53205886 25.0519475 -4.7265625 23.6328125 C-1.65570971 20.72870285 -0.76395686 17.82566002 -0.5859375 13.671875 C-0.54726563 12.87265625 -0.50859375 12.0734375 -0.46875 11.25 C-0.4378125 10.425 -0.406875 9.6 -0.375 8.75 C-0.33632813 7.90953125 -0.29765625 7.0690625 -0.2578125 6.203125 C-0.16384164 4.13576618 -0.08084436 2.06791373 0 0 Z " fill="#056054" transform="translate(378,349)"/>
<path d="M0 0 C-2.28557405 1.84604058 -4.41024358 3.20093563 -7.0625 4.5 C-9.69619395 5.844865 -11.01198316 6.92161876 -13 9 C-15.67643887 10.58913558 -16.8180056 11 -20 11 C-19.34 10.67 -18.68 10.34 -18 10 C-18 9.34 -18 8.68 -18 8 C-17.34 8 -16.68 8 -16 8 C-16 6.68 -16 5.36 -16 4 C-10.45108785 1.18150494 -6.258654 -0.5326514 0 0 Z " fill="#16B980" transform="translate(304,246)"/>
<path d="M0 0 C3.07100006 3.63970378 4.84878366 7.68118756 6.75 12 C7.07871094 12.7115625 7.40742188 13.423125 7.74609375 14.15625 C9.40274281 17.90293311 10.29082087 20.09078035 9 24 C8.67 23.01 8.34 22.02 8 21 C7.34 20.67 6.68 20.34 6 20 C5.31974363 18.00458132 4.65509503 16.00382009 4 14 C3.0398183 12.31008021 2.04644066 10.63790712 1 9 C-0.4783226 6.04335481 -0.06032783 3.25770263 0 0 Z " fill="#077164" transform="translate(427,328)"/>
<path d="M0 0 C5.9535019 5.9535019 7.7730789 16.88767094 9 25 C8.34 25 7.68 25 7 25 C6.34 21.7 5.68 18.4 5 15 C4.34 15 3.68 15 3 15 C2.49564306 13.0636296 1.99666126 11.12585854 1.5 9.1875 C1.2215625 8.10855469 0.943125 7.02960938 0.65625 5.91796875 C0 3 0 3 0 0 Z " fill="#1CCF94" transform="translate(450,251)"/>
<path d="M0 0 C4.09688072 1.52960462 7.85166011 3.46744036 11.6875 5.5625 C15.81817748 7.83019582 15.81817748 7.83019582 20 10 C18.35 10.66 16.7 11.32 15 12 C15 11.34 15 10.68 15 10 C14.01 10 13.02 10 12 10 C12 9.34 12 8.68 12 8 C10.948125 7.979375 9.89625 7.95875 8.8125 7.9375 C4.1716711 6.79631257 3.27946279 5.38229262 0.84765625 1.49609375 C0.42806641 0.75552734 0.42806641 0.75552734 0 0 Z " fill="#077550" transform="translate(288,376)"/>
<path d="M0 0 C3.57231298 5.35846947 3.12223971 10.765775 3 17 C3.66 17 4.32 17 5 17 C5 18.98 5 20.96 5 23 C3 22 3 22 1.96484375 19.5234375 C0.1660546 14.01079852 -1.4740265 8.78570852 -2 3 C-1.01 4.485 -1.01 4.485 0 6 C0 4.02 0 2.04 0 0 Z " fill="#0A9265" transform="translate(184,341)"/>
<path d="M0 0 C0.33 0 0.66 0 1 0 C2.77566225 23.79387417 2.77566225 23.79387417 -1.0625 28.5625 C-1.701875 29.036875 -2.34125 29.51125 -3 30 C-2.67 28.68 -2.34 27.36 -2 26 C-2.66 26 -3.32 26 -4 26 C-4 25.01 -4 24.02 -4 23 C-3.01 22.67 -2.02 22.34 -1 22 C-0.67 14.74 -0.34 7.48 0 0 Z " fill="#057764" transform="translate(439,362)"/>
<path d="M0 0 C6.46567022 1.40558048 11.45752952 4.45371104 17 8 C13.30581799 9.231394 10.7943739 8.64432764 7 8 C7 7.34 7 6.68 7 6 C5.68 5.67 4.36 5.34 3 5 C3 4.01 3 3.02 3 2 C2.01 1.67 1.02 1.34 0 1 C0 0.67 0 0.34 0 0 Z " fill="#0C7E6C" transform="translate(373,281)"/>
<path d="M0 0 C3 1 3 1 4.15087891 2.76245117 C4.68334229 3.89130737 4.68334229 3.89130737 5.2265625 5.04296875 C5.814375 6.28336914 5.814375 6.28336914 6.4140625 7.54882812 C6.81367188 8.41958984 7.21328125 9.29035156 7.625 10.1875 C8.03234375 11.03892578 8.4396875 11.89035156 8.859375 12.76757812 C10.91723677 17.17290142 12.53476367 21.0989759 13 26 C9.71785755 23.32169385 8.61565856 20.05597715 7.0625 16.1875 C5.54203955 12.4045944 4.08601367 9.12802391 1.80859375 5.73828125 C0 3 0 3 0 0 Z " fill="#037250" transform="translate(425,306)"/>
<path d="M0 0 C-3.96 1.98 -3.96 1.98 -8 4 C-6.29107501 7.31460705 -6.29107501 7.31460705 -2.875 7.6875 C-1.92625 7.790625 -0.9775 7.89375 0 8 C0 8.33 0 8.66 0 9 C-5.8022175 9.36263859 -9.63999211 8.25684543 -15 6 C-15 5.34 -15 4.68 -15 4 C-14.37351562 3.72285156 -13.74703125 3.44570313 -13.1015625 3.16015625 C-12.28429687 2.79792969 -11.46703125 2.43570312 -10.625 2.0625 C-9.81289063 1.70285156 -9.00078125 1.34320313 -8.1640625 0.97265625 C-3.85548387 -0.96387097 -3.85548387 -0.96387097 0 0 Z " fill="#0F7065" transform="translate(312,279)"/>
<path d="M0 0 C0.97453125 0.00451172 1.9490625 0.00902344 2.953125 0.01367188 C5.34381434 0.02539094 7.7343744 0.04179781 10.125 0.0625 C10.125 0.3925 10.125 0.7225 10.125 1.0625 C1.71 1.5575 1.71 1.5575 -6.875 2.0625 C-7.205 2.7225 -7.535 3.3825 -7.875 4.0625 C-8.41125 3.876875 -8.9475 3.69125 -9.5 3.5 C-11.97649239 2.90449984 -11.97649239 2.90449984 -14.875 3.5625 C-17.71237747 4.03539625 -19.20719433 3.98597119 -21.875 3.0625 C-14.66841075 -0.11687761 -7.73857775 -0.06815821 0 0 Z " fill="#016741" transform="translate(325.875,241.9375)"/>
<path d="M0 0 C0 0.99 0 1.98 0 3 C-1.31787285 4.02028865 -2.65210653 5.01971384 -4 6 C-4.33 6.99 -4.66 7.98 -5 9 C-5.99 9.495 -5.99 9.495 -7 10 C-7.72159424 11.64363134 -8.39351421 13.31050386 -9 15 C-9.66 14.67 -10.32 14.34 -11 14 C-11 12.02 -11 10.04 -11 8 C-10.34 8 -9.68 8 -9 8 C-9 7.01 -9 6.02 -9 5 C-8.071875 4.54625 -7.14375 4.0925 -6.1875 3.625 C-2.96078611 2.0578367 -2.96078611 2.0578367 0 0 Z " fill="#089460" transform="translate(280,260)"/>
<path d="M0 0 C-1.89454824 0.96087136 -3.79069581 1.91858969 -5.6875 2.875 C-6.74324219 3.40867187 -7.79898437 3.94234375 -8.88671875 4.4921875 C-16.30377998 8.08439031 -16.30377998 8.08439031 -19.0625 7.75 C-21.09656303 6.96262076 -23.04912769 5.97543616 -25 5 C-19.72 4.34 -14.44 3.68 -9 3 C-9 2.34 -9 1.68 -9 1 C-2.25 -1.125 -2.25 -1.125 0 0 Z " fill="#056D5E" transform="translate(385,437)"/>
<path d="M0 0 C-1.65083123 2.4456759 -2.47145275 3.57581825 -5 5 C-9.36272089 5.44894828 -13.62919727 5.28797383 -18 5 C-12.0782972 1.9733519 -6.79433846 -0.50957538 0 0 Z " fill="#076E5D" transform="translate(362,385)"/>
<path d="M0 0 C1.98 0 3.96 0 6 0 C6.33 2.31 6.66 4.62 7 7 C7.66 7 8.32 7 9 7 C9.99 9.97 10.98 12.94 12 16 C9.26358773 13.26358773 7.13303972 10.56625983 4.875 7.4375 C4.17117188 6.46683594 3.46734375 5.49617188 2.7421875 4.49609375 C1 2 1 2 0 0 Z " fill="#108274" transform="translate(360,316)"/>
<path d="M0 0 C0.33 0.66 0.66 1.32 1 2 C-0.39710444 4.79420888 -2.39038161 4.9711037 -5.16796875 6.07421875 C-7.30670545 7.03094464 -7.30670545 7.03094464 -9.5625 9.625 C-12.40770927 12.39725518 -14.10576778 12.72830938 -18 13 C-14.38759436 9.11547341 -10.7490213 6.36745733 -6.1875 3.6875 C-5.59001953 3.32849609 -4.99253906 2.96949219 -4.37695312 2.59960938 C-2.92186044 1.72655376 -1.46147271 0.86233309 0 0 Z " fill="#1DE19B" transform="translate(252,181)"/>
<path d="M0 0 C1.56590583 3.97877959 0.34277516 6.80140724 -0.9375 10.75 C-2.56902942 16.12115184 -3.44622864 20.422142 -3 26 C-3.66 26 -4.32 26 -5 26 C-5.33 27.32 -5.66 28.64 -6 30 C-5.66456957 20.05448778 -4.52565484 9.05130969 0 0 Z " fill="#046E4B" transform="translate(184,262)"/>
<path d="M0 0 C0.66 0 1.32 0 2 0 C3.3540932 1.98600337 4.68457624 3.98817543 6 6 C7.0209375 6.99 7.0209375 6.99 8.0625 8 C10.41372456 10.42707051 11.57367623 12.95285376 13 16 C13.66 16.99 14.32 17.98 15 19 C14.625 21.1875 14.625 21.1875 14 23 C13.57589844 22.24976563 13.15179688 21.49953125 12.71484375 20.7265625 C9.17436973 14.54824081 5.4680604 8.6274151 1.28515625 2.86328125 C0 1 0 1 0 0 Z " fill="#006342" transform="translate(431,217)"/>
<path d="M0 0 C-3.75917021 2.09383833 -7.78434195 3.29777361 -11.875 4.5625 C-12.56980469 4.78357422 -13.26460938 5.00464844 -13.98046875 5.23242188 C-17.96823003 6.47531169 -21.85005223 7.42108879 -26 8 C-24 6 -24 6 -21 5 C-20.67 4.01 -20.34 3.02 -20 2 C-19.41992188 1.93941406 -18.83984375 1.87882813 -18.2421875 1.81640625 C-14.72205439 1.43883422 -11.2398637 1.04151487 -7.75 0.4375 C-5.11309029 0.01799164 -2.6643499 -0.07836323 0 0 Z " fill="#00603D" transform="translate(292,166)"/>
<path d="M0 0 C2.31 0 4.62 0 7 0 C7 1.98 7 3.96 7 6 C4.69 6 2.38 6 0 6 C0 4.02 0 2.04 0 0 Z " fill="#02F592" transform="translate(191,468)"/>
<path d="M0 0 C0.66 0.66 1.32 1.32 2 2 C0.77023438 2.81404297 0.77023438 2.81404297 -0.484375 3.64453125 C-1.56203125 4.35996094 -2.6396875 5.07539063 -3.75 5.8125 C-4.81734375 6.52019531 -5.8846875 7.22789062 -6.984375 7.95703125 C-8.78065128 9.17393863 -10.55283142 10.42987409 -12.265625 11.76171875 C-14 13 -14 13 -16 13 C-14.84826645 10.53199953 -13.95216435 8.95216435 -12 7 C-9.68234271 6.28072705 -7.34904126 5.6090107 -5 5 C-5 4.34 -5 3.68 -5 3 C-2.5 1.375 -2.5 1.375 0 0 Z " fill="#005C3A" transform="translate(248,181)"/>
<path d="M0 0 C0 3.9442667 -1.31374137 4.82396027 -3.9375 7.6875 C-4.66839844 8.49574219 -5.39929688 9.30398438 -6.15234375 10.13671875 C-6.76207031 10.75160156 -7.37179687 11.36648438 -8 12 C-8.33 12 -8.66 12 -9 12 C-9.1875 9.6875 -9.1875 9.6875 -9 7 C-7.5 5.375 -7.5 5.375 -6 4 C-6 3.01 -6 2.02 -6 1 C-5.34 1 -4.68 1 -4 1 C-3.67 1.66 -3.34 2.32 -3 3 C-2.01 2.01 -1.02 1.02 0 0 Z " fill="#098877" transform="translate(435,392)"/>
<path d="M0 0 C1.12642186 3.37926557 0.96344705 3.72928278 -0.43359375 6.79296875 C-0.75263672 7.50517578 -1.07167969 8.21738281 -1.40039062 8.95117188 C-1.74263672 9.68916016 -2.08488281 10.42714844 -2.4375 11.1875 C-2.77587891 11.93708984 -3.11425781 12.68667969 -3.46289062 13.45898438 C-4.2999411 15.30992698 -5.14885404 17.15549666 -6 19 C-7 16 -7 16 -5.5625 12.8125 C-5.046875 11.884375 -4.53125 10.95625 -4 10 C-4.66 10 -5.32 10 -6 10 C-5.34 8.35 -4.68 6.7 -4 5 C-3.01 5 -2.02 5 -1 5 C-0.67 3.35 -0.34 1.7 0 0 Z " fill="#088465" transform="translate(455,352)"/>
<path d="M0 0 C1.32 0 2.64 0 4 0 C5.59162079 5.57067277 6.20674944 10.21101581 6 16 C4.08614468 13.12921701 3.03567048 10.66588344 1.875 7.4375 C1.52179688 6.46683594 1.16859375 5.49617188 0.8046875 4.49609375 C0 2 0 2 0 0 Z " fill="#118174" transform="translate(372,332)"/>
<path d="M0 0 C5.5302154 4.75404482 8.03977323 13.19466859 8.8125 20.25 C8.874375 21.4875 8.93625 22.725 9 24 C6.74068906 21.74068906 6.4417458 20.5363726 5.625 17.5 C4.30966512 12.85922874 2.64560053 8.47198328 0.76953125 4.03125 C0 2 0 2 0 0 Z " fill="#005E3E" transform="translate(450,248)"/>
<path d="M0 0 C0.99 0 1.98 0 3 0 C5.1875 3 5.1875 3 7 6 C7.66 4.68 8.32 3.36 9 2 C9.66 2.33 10.32 2.66 11 3 C11.40729228 5.32156597 11.74438677 7.6568787 12 10 C5.74531953 7.91510651 3.47975761 5.58870162 0 0 Z " fill="#06E393" transform="translate(248,333)"/>
<path d="M0 0 C4.91722636 1.19778591 8.19976265 2.06313676 11.5625 6 C13 9 13 9 13 12 C12.48050781 11.52949219 11.96101563 11.05898438 11.42578125 10.57421875 C7.75340448 7.29555335 4.24098537 4.51808506 0 2 C0 1.34 0 0.68 0 0 Z " fill="#0C7C69" transform="translate(346,304)"/>
<path d="M0 0 C3.73487777 0.4979837 5.81237635 0.87491756 9 3 C9 3.66 9 4.32 9 5 C12.3 5.33 15.6 5.66 19 6 C19 6.33 19 6.66 19 7 C12.3687091 7.49120673 6.81393319 6.38862772 1 3 C0.67 2.01 0.34 1.02 0 0 Z " fill="#0A6F63" transform="translate(258,436)"/>
<path d="M0 0 C5.65116279 2.30232558 5.65116279 2.30232558 7 5 C6.35933594 4.86722656 5.71867187 4.73445312 5.05859375 4.59765625 C0.05016007 3.57506994 -4.93111794 2.66115853 -10 2 C-6.25816125 -0.49455917 -4.43756964 -0.37606522 0 0 Z " fill="#18D692" transform="translate(346,241)"/>
<path d="M0 0 C1.98 0.66 3.96 1.32 6 2 C6 2.99 6 3.98 6 5 C6.99 5.33 7.98 5.66 9 6 C9.33 7.98 9.66 9.96 10 12 C5.25892502 8.74897716 2.79129597 4.89367634 0 0 Z " fill="#096B5E" transform="translate(206,394)"/>
<path d="M0 0 C1.98 0 3.96 0 6 0 C6 0.99 6 1.98 6 3 C6.66 3 7.32 3 8 3 C8 4.98 8 6.96 8 9 C4.36905358 6.35039045 2.10148204 3.98175544 0 0 Z " fill="#13A579" transform="translate(408,285)"/>
<path d="M0 0 C6.16356805 1.6658292 11.48259656 4.87805286 17 8 C16.01 8.33 15.02 8.66 14 9 C12.2634148 8.049793 10.53011382 7.08992725 8.84765625 6.046875 C6.82452157 4.81557246 6.82452157 4.81557246 3.625 3.9375 C2.75875 3.628125 1.8925 3.31875 1 3 C0.67 2.01 0.34 1.02 0 0 Z " fill="#21DE9A" transform="translate(378,177)"/>
<path d="M0 0 C1.65 0 3.3 0 5 0 C5 0.99 5 1.98 5 3 C5.94875 3.226875 6.8975 3.45375 7.875 3.6875 C11 5 11 5 12.375 7.625 C12.58125 8.40875 12.7875 9.1925 13 10 C9.74035658 8.51222697 7.06830707 6.64333184 4.25 4.4375 C3.45078125 3.81746094 2.6515625 3.19742188 1.828125 2.55859375 C1.22484375 2.04425781 0.6215625 1.52992188 0 1 C0 0.67 0 0.34 0 0 Z " fill="#02633E" transform="translate(400,188)"/>
<path d="M0 0 C1.32 0.33 2.64 0.66 4 1 C-5.71428571 9 -5.71428571 9 -9 9 C-9 8.01 -9 7.02 -9 6 C-8.38125 5.896875 -7.7625 5.79375 -7.125 5.6875 C-4.63473516 5.12474627 -4.63473516 5.12474627 -3 2 C-2.01 2 -1.02 2 0 2 C0 1.34 0 0.68 0 0 Z " fill="#0C826F" transform="translate(403,422)"/>
<path d="M0 0 C0.66 1.32 1.32 2.64 2 4 C2.66 4 3.32 4 4 4 C4.33 5.32 4.66 6.64 5 8 C5.66 8 6.32 8 7 8 C7.33 9.32 7.66 10.64 8 12 C8.66 12 9.32 12 10 12 C10 12.66 10 13.32 10 14 C9.01 14 8.02 14 7 14 C5.94228261 12.36935236 4.94726954 10.69719127 4 9 C3.46375 8.525625 2.9275 8.05125 2.375 7.5625 C0.35942537 5.27207428 0.32936135 2.96425214 0 0 Z " fill="#087452" transform="translate(269,354)"/>
<path d="M0 0 C3.99926986 2.97088618 6.92118304 6.12948725 10 10 C9.67 10.66 9.34 11.32 9 12 C6.0625 10.8125 6.0625 10.8125 3 9 C2.25 6.5625 2.25 6.5625 2 4 C1.00916033 1.76591887 1.00916033 1.76591887 0 0 Z " fill="#0B7C6B" transform="translate(410,306)"/>
<path d="M0 0 C1.231394 3.69418201 0.64432764 6.2056261 0 10 C-0.99 9.67 -1.98 9.34 -3 9 C-3.73046875 7.15234375 -3.73046875 7.15234375 -4.1875 4.9375 C-4.34605469 4.20402344 -4.50460937 3.47054688 -4.66796875 2.71484375 C-4.77753906 2.14894531 -4.88710938 1.58304687 -5 1 C-2.525 1.495 -2.525 1.495 0 2 C0 1.34 0 0.68 0 0 Z " fill="#0ADE99" transform="translate(432,303)"/>
<path d="M0 0 C2.07984914 3.11977371 2.78770149 5.45013819 3.6875 9.0625 C3.95949219 10.12597656 4.23148437 11.18945312 4.51171875 12.28515625 C5 15 5 15 4 17 C0.82824575 13.56464151 0.54233495 10.84669909 0.3125 6.25 C0.24675781 5.07953125 0.18101562 3.9090625 0.11328125 2.703125 C0.07589844 1.81109375 0.03851563 0.9190625 0 0 Z " fill="#1ECF93" transform="translate(258,330)"/>
<path d="M0 0 C0 0.66 0 1.32 0 2 C-2.75 4.6875 -2.75 4.6875 -6 7 C-8.375 6.8125 -8.375 6.8125 -10 6 C-10 5.34 -10 4.68 -10 4 C-8.71086513 3.32845067 -7.41859796 2.66291141 -6.125 2 C-5.40570313 1.62875 -4.68640625 1.2575 -3.9453125 0.875 C-2 0 -2 0 0 0 Z " fill="#1EE69D" transform="translate(266,175)"/>
<path d="M0 0 C3.23693164 1.48483103 5.9325625 3.32707435 8.75 5.5 C9.54921875 6.1084375 10.3484375 6.716875 11.171875 7.34375 C11.77515625 7.8903125 12.3784375 8.436875 13 9 C13 9.66 13 10.32 13 11 C11.1875 10.75 11.1875 10.75 9 10 C7.5 8 7.5 8 6 6 C4.9790625 5.7834375 4.9790625 5.7834375 3.9375 5.5625 C3.298125 5.376875 2.65875 5.19125 2 5 C0.75 2.4375 0.75 2.4375 0 0 Z " fill="#0A7464" transform="translate(397,295)"/>
<path d="M0 0 C0.66 0 1.32 0 2 0 C2.86883706 1.57533086 3.71959068 3.16064509 4.5625 4.75 C5.03816406 5.63171875 5.51382813 6.5134375 6.00390625 7.421875 C7.07998186 10.20701188 7.06528748 11.26980214 6 14 C3 8.25 3 8.25 3 6 C2.34 6 1.68 6 1 6 C0.67 4.02 0.34 2.04 0 0 Z " fill="#0EF097" transform="translate(218,288)"/>
<path d="M0 0 C-2.28703308 1.19725883 -4.57884862 2.38297018 -6.875 3.5625 C-7.52597656 3.90474609 -8.17695313 4.24699219 -8.84765625 4.59960938 C-10.53529857 5.46082891 -12.26579593 6.23686703 -14 7 C-14.66 6.67 -15.32 6.34 -16 6 C-13.70041309 2.55061964 -13.70687608 2.80148672 -10 2 C-8.824375 1.46375 -7.64875 0.9275 -6.4375 0.375 C-3 -1 -3 -1 0 0 Z " fill="#00613C" transform="translate(266,175)"/>
<path d="M0 0 C4.63708939 2.60836278 8.78744458 5.77002574 13 9 C12.01 9.33 11.02 9.66 10 10 C9.01 9.34 8.02 8.68 7 8 C7 7.34 7 6.68 7 6 C6.21625 5.690625 5.4325 5.38125 4.625 5.0625 C2 4 2 4 0 3 C0 2.01 0 1.02 0 0 Z " fill="#24DB97" transform="translate(397,187)"/>
<path d="M0 0 C2.97 0.495 2.97 0.495 6 1 C6 1.99 6 2.98 6 4 C6.66 4 7.32 4 8 4 C8 4.99 8 5.98 8 7 C7.01 7 6.02 7 5 7 C5 6.34 5 5.68 5 5 C4.01 4.67 3.02 4.34 2 4 C2 3.01 2 2.02 2 1 C1.34 0.67 0.68 0.34 0 0 Z " fill="#0F8F7C" transform="translate(338,297)"/>
<path d="M0 0 C-1 2 -1 2 -2.625 2.625 C-5.7660575 3.12095645 -8.82601831 3.06103811 -12 3 C-12 2.34 -12 1.68 -12 1 C-7.9472484 0.01751476 -4.16138263 -0.08159574 0 0 Z " fill="#14A58D" transform="translate(365,443)"/>
<path d="M0 0 C-0.99 0.495 -0.99 0.495 -2 1 C-2 1.66 -2 2.32 -2 3 C-2.66 3 -3.32 3 -4 3 C-4.33 4.32 -4.66 5.64 -5 7 C-5.66 7 -6.32 7 -7 7 C-7 5.02 -7 3.04 -7 1 C-4.53721199 -0.231394 -2.7204945 -0.07159196 0 0 Z " fill="#18CE87" transform="translate(288,253)"/>
<path d="M0 0 C0.33 0.66 0.66 1.32 1 2 C1.66 2 2.32 2 3 2 C2.67 2.99 2.34 3.98 2 5 C0.35 5.33 -1.3 5.66 -3 6 C-3.33 4.68 -3.66 3.36 -4 2 C-2.68 1.34 -1.36 0.68 0 0 Z " fill="#0BFA9F" transform="translate(227,201)"/>
<path d="M0 0 C2 2 2 2 2.1953125 4.1640625 C2.16050781 5.38222656 2.16050781 5.38222656 2.125 6.625 C2.10695313 7.44226563 2.08890625 8.25953125 2.0703125 9.1015625 C2.04710937 9.72804688 2.02390625 10.35453125 2 11 C1.01 11 0.02 11 -1 11 C-1.02688151 9.35425434 -1.04634123 7.70838587 -1.0625 6.0625 C-1.07410156 5.14597656 -1.08570313 4.22945313 -1.09765625 3.28515625 C-1 1 -1 1 0 0 Z " fill="#07D198" transform="translate(451,346)"/>
<path d="M0 0 C0.33 0.99 0.66 1.98 1 3 C1.66 3.33 2.32 3.66 3 4 C2.34 5.65 1.68 7.3 1 9 C-0.5 7.75 -0.5 7.75 -2 6 C-2 4.68 -2 3.36 -2 2 C-1.34 2 -0.68 2 0 2 C0 1.34 0 0.68 0 0 Z " fill="#03DE97" transform="translate(438,317)"/>
<path d="M0 0 C3.14958831 3.42346555 3.56179109 6.44262737 4 11 C3.01 11.495 3.01 11.495 2 12 C0.00214565 7.8794254 -0.17835515 4.54805635 0 0 Z " fill="#0D8D7C" transform="translate(427,328)"/>
<path d="M0 0 C0.33 0 0.66 0 1 0 C1.125 7.75 1.125 7.75 0 10 C-0.66 10 -1.32 10 -2 10 C-1.85950482 8.52031676 -1.71245174 7.04125484 -1.5625 5.5625 C-1.48128906 4.73878906 -1.40007812 3.91507812 -1.31640625 3.06640625 C-1 1 -1 1 0 0 Z " fill="#149F72" transform="translate(187,256)"/>
<path d="M0 0 C0.66 0.33 1.32 0.66 2 1 C-0.47585238 3.65269897 -2.59026101 5.68010103 -6 7 C-6.99 7 -7.98 7 -9 7 C-8.34 6.67 -7.68 6.34 -7 6 C-7 5.34 -7 4.68 -7 4 C-1.7265625 0.77734375 -1.7265625 0.77734375 0 0 Z " fill="#01603E" transform="translate(293,250)"/>
<path d="M0 0 C4.62609198 -0.3227506 7.28026121 0.15549386 11 3 C11 3.66 11 4.32 11 5 C9.53932801 4.54917531 8.08151968 4.08906463 6.625 3.625 C5.81289063 3.36976563 5.00078125 3.11453125 4.1640625 2.8515625 C2 2 2 2 0 0 Z " fill="#1CD697" transform="translate(354,246)"/>
<path d="M0 0 C0.33 0.99 0.66 1.98 1 3 C1.66 3 2.32 3 3 3 C3.66 4.98 4.32 6.96 5 9 C4.01 9.495 4.01 9.495 3 10 C1.5 8.9375 1.5 8.9375 0 7 C-0.1875 3.3125 -0.1875 3.3125 0 0 Z " fill="#137B71" transform="translate(196,373)"/>
<path d="M0 0 C2.95847985 2.95847985 4.34210853 5.21053378 6 9 C6 9.99 6 10.98 6 12 C5.01 12 4.02 12 3 12 C2.01 8.04 1.02 4.08 0 0 Z " fill="#036947" transform="translate(263,342)"/>
<path d="M0 0 C4.875 4.625 4.875 4.625 6 8 C1.125 6.125 1.125 6.125 0 5 C-0.04063832 3.33382885 -0.042721 1.66611905 0 0 Z " fill="#19B483" transform="translate(422,299)"/>
<path d="M0 0 C2 1 2 1 3 3 C2.34 3 1.68 3 1 3 C1 3.66 1 4.32 1 5 C-0.65 5.33 -2.3 5.66 -4 6 C-4 5.01 -4 4.02 -4 3 C-2 1.3125 -2 1.3125 0 0 Z " fill="#0BF8A3" transform="translate(236,193)"/>
<path d="M0 0 C0.33 0.66 0.66 1.32 1 2 C0.67 2.99 0.34 3.98 0 5 C-1.65 5.33 -3.3 5.66 -5 6 C-5.33 6.99 -5.66 7.98 -6 9 C-6.99 8.67 -7.98 8.34 -9 8 C-6.60490662 5.10067643 -4.68754757 4.49831724 -1 4 C-0.67 2.68 -0.34 1.36 0 0 Z " fill="#0C7E6C" transform="translate(373,375)"/>
<path d="M0 0 C1 3 1 3 0.22265625 4.82421875 C-0.8515625 6.54947917 -1.92578125 8.27473958 -3 10 C-3.33 10 -3.66 10 -4 10 C-3.67 7.36 -3.34 4.72 -3 2 C-2.01 2 -1.02 2 0 2 C0 1.34 0 0.68 0 0 Z " fill="#25AB8A" transform="translate(447,368)"/>
<path d="M0 0 C0.33 0 0.66 0 1 0 C1 1.65 1 3.3 1 5 C1.66 5 2.32 5 3 5 C3 6.98 3 8.96 3 11 C2.34 10.67 1.68 10.34 1 10 C0.33203125 7.96875 0.33203125 7.96875 -0.1875 5.5 C-0.36667969 4.6853125 -0.54585937 3.870625 -0.73046875 3.03125 C-0.81941406 2.3609375 -0.90835938 1.690625 -1 1 C-0.67 0.67 -0.34 0.34 0 0 Z " fill="#097C58" transform="translate(186,353)"/>
<path d="M0 0 C0.33 0 0.66 0 1 0 C1 1.98 1 3.96 1 6 C0.34 6 -0.32 6 -1 6 C-1.66 7.65 -2.32 9.3 -3 11 C-4 8 -4 8 -3.22265625 5.95703125 C-2.83980469 5.24933594 -2.45695313 4.54164063 -2.0625 3.8125 C-1.68222656 3.09707031 -1.30195313 2.38164062 -0.91015625 1.64453125 C-0.60980469 1.10183594 -0.30945313 0.55914062 0 0 Z " fill="#087652" transform="translate(191,245)"/>
<path d="M0 0 C1.32 0.33 2.64 0.66 4 1 C4.66 3.64 5.32 6.28 6 9 C2.91910327 6.22719294 1.31224548 3.93673644 0 0 Z " fill="#08675A" transform="translate(200,385)"/>
<path d="M0 0 C6.625 0.625 6.625 0.625 10 4 C6.7 3.67 3.4 3.34 0 3 C0 2.01 0 1.02 0 0 Z " fill="#0F937E" transform="translate(380,286)"/>
<path d="M0 0 C1.32 1.32 2.64 2.64 4 4 C3.67 4.66 3.34 5.32 3 6 C2.01 6.33 1.02 6.66 0 7 C-0.93423645 3.98968256 -1.04449911 3.13349732 0 0 Z " fill="#05E993" transform="translate(433,224)"/>
<path d="M0 0 C3.3 0 6.6 0 10 0 C10 0.66 10 1.32 10 2 C7.25 2.6875 7.25 2.6875 4 3 C2.68 2.01 1.36 1.02 0 0 Z " fill="#088871" transform="translate(360,442)"/>
<path d="M0 0 C0.66 0.33 1.32 0.66 2 1 C-0.31 3.31 -2.62 5.62 -5 8 C-5.33 7.34 -5.66 6.68 -6 6 C-4 4 -2 2 0 0 Z " fill="#02C779" transform="translate(487,479)"/>
<path d="M0 0 C0.66 0.33 1.32 0.66 2 1 C-0.31 3.31 -2.62 5.62 -5 8 C-5 5 -5 5 -2.5 2.3125 C-1.675 1.549375 -0.85 0.78625 0 0 Z " fill="#02C779" transform="translate(214,479)"/>
<path d="M0 0 C0.66 0 1.32 0 2 0 C0.73058503 3.91402949 -0.51167694 5.79072873 -4 8 C-4 7.01 -4 6.02 -4 5 C-3.34 5 -2.68 5 -2 5 C-1.34 3.35 -0.68 1.7 0 0 Z " fill="#19A48E" transform="translate(435,388)"/>
<path d="M0 0 C0.66 0 1.32 0 2 0 C2 1.65 2 3.3 2 5 C1.34 5 0.68 5 0 5 C0 5.66 0 6.32 0 7 C-0.66 7 -1.32 7 -2 7 C-1.125 2.25 -1.125 2.25 0 0 Z " fill="#07D89B" transform="translate(445,337)"/>
<path d="M0 0 C1.32 0.33 2.64 0.66 4 1 C4 2.65 4 4.3 4 6 C3.34 6 2.68 6 2 6 C2 5.34 2 4.68 2 4 C1.34 4 0.68 4 0 4 C0 2.68 0 1.36 0 0 Z " fill="#19D69F" transform="translate(416,290)"/>
<path d="M0 0 C0.99 0.33 1.98 0.66 3 1 C2 4 2 4 -0.375 5.25 C-3 6 -3 6 -6 5 C-5.195625 4.731875 -4.39125 4.46375 -3.5625 4.1875 C-2.716875 3.795625 -1.87125 3.40375 -1 3 C-0.67 2.01 -0.34 1.02 0 0 Z " fill="#055538" transform="translate(272,168)"/>
<path d="M0 0 C0.66 0.33 1.32 0.66 2 1 C-0.31 3.31 -2.62 5.62 -5 8 C-5 5 -5 5 -2.5 2.3125 C-1.675 1.549375 -0.85 0.78625 0 0 Z " fill="#02C678" transform="translate(519,479)"/>
<path d="M0 0 C0.66 0.33 1.32 0.66 2 1 C-0.31 3.31 -2.62 5.62 -5 8 C-5 5 -5 5 -2.5 2.3125 C-1.675 1.549375 -0.85 0.78625 0 0 Z " fill="#02C678" transform="translate(316,479)"/>
<path d="M0 0 C2.4375 1.1875 2.4375 1.1875 5 3 C5.8125 5.6875 5.8125 5.6875 6 8 C1.125 3.375 1.125 3.375 0 0 Z " fill="#0CEC97" transform="translate(226,304)"/>
<path d="M0 0 C3.65316671 1.24976756 4.78065836 1.67098753 7 5 C5.35 4.67 3.7 4.34 2 4 C2 3.34 2 2.68 2 2 C1.01 2.33 0.02 2.66 -1 3 C-0.67 2.01 -0.34 1.02 0 0 Z " fill="#0C796A" transform="translate(390,290)"/>
<path d="M0 0 C0.66 0 1.32 0 2 0 C3.42944945 2.35438733 4.08661261 3.48032433 3.625 6.25 C3.41875 6.8275 3.2125 7.405 3 8 C3 7.01 3 6.02 3 5 C2.01 5.33 1.02 5.66 0 6 C0 4.02 0 2.04 0 0 Z " fill="#17F3A4" transform="translate(203,226)"/>
<path d="M0 0 C0.66 0.33 1.32 0.66 2 1 C-0.46153846 5.8 -0.46153846 5.8 -3.1875 6.8125 C-3.785625 6.874375 -4.38375 6.93625 -5 7 C-4.67 6.01 -4.34 5.02 -4 4 C-3.01 3.67 -2.02 3.34 -1 3 C-0.67 2.01 -0.34 1.02 0 0 Z " fill="#077952" transform="translate(223,200)"/>
<path d="M0 0 C0.33 0.66 0.66 1.32 1 2 C0.67 2.66 0.34 3.32 0 4 C-2.32156597 4.40729228 -4.6568787 4.74438677 -7 5 C-2.25 1.125 -2.25 1.125 0 0 Z " fill="#17D692" transform="translate(252,181)"/>
<path d="M0 0 C0.66 0 1.32 0 2 0 C2 0.66 2 1.32 2 2 C1.01 1.67 0.02 1.34 -1 1 C-0.67 0.67 -0.34 0.34 0 0 Z " fill="#133133" transform="translate(353,254)"/>
<path d="M0 0 C0.66 0.33 1.32 0.66 2 1 C1.01 1 0.02 1 -1 1 C-0.67 0.67 -0.34 0.34 0 0 Z " fill="#153334" transform="translate(337,302)"/>
<path d="M0 0 C1.485 0.99 1.485 0.99 3 2 C2.01 2 1.02 2 0 2 C0 1.34 0 0.68 0 0 Z " fill="#143A38" transform="translate(358,251)"/>
<path d="M0 0 C0.66 0.33 1.32 0.66 2 1 C1.01 1 0.02 1 -1 1 C-0.67 0.67 -0.34 0.34 0 0 Z " fill="#143937" transform="translate(296,251)"/>
<path d="M0 0 C0.99 0.495 0.99 0.495 2 1 C1.01 1.495 1.01 1.495 0 2 C0 1.34 0 0.68 0 0 Z " fill="#113935" transform="translate(267,280)"/>
<path d="M0 0 C0.33 0.66 0.66 1.32 1 2 C0.34 1.67 -0.32 1.34 -1 1 C-0.67 0.67 -0.34 0.34 0 0 Z " fill="#11302C" transform="translate(287,270)"/>
<path d="" fill="#113535" transform="translate(0,0)"/>
<path d="" fill="#123636" transform="translate(0,0)"/>
<path d="" fill="#03483B" transform="translate(0,0)"/>
<path d="" fill="#02483A" transform="translate(0,0)"/>
<path d="M0 0 C2 1 2 1 2 1 Z " fill="#10453D" transform="translate(361,253)"/>
<path d="M0 0 C2 1 2 1 2 1 Z " fill="#123D3C" transform="translate(217,201)"/>
<path d="" fill="#133E38" transform="translate(0,0)"/>
<path d="M0 0 C2 1 2 1 2 1 Z " fill="#143939" transform="translate(253,176)"/>
<path d="M0 0 C2 1 2 1 2 1 Z " fill="#113535" transform="translate(261,171)"/>
<path d="M0 0 C2 1 2 1 2 1 Z " fill="#123536" transform="translate(365,168)"/>
<path d="" fill="#12403E" transform="translate(0,0)"/>
<path d="" fill="#12403D" transform="translate(0,0)"/>
<path d="" fill="#113938" transform="translate(0,0)"/>
<path d="" fill="#123231" transform="translate(0,0)"/>
<path d="" fill="#00291E" transform="translate(0,0)"/>
<path d="" fill="#024A3E" transform="translate(0,0)"/>
<path d="" fill="#113A36" transform="translate(0,0)"/>
<path d="" fill="#11443D" transform="translate(0,0)"/>
<path d="" fill="#002827" transform="translate(0,0)"/>
<path d="" fill="#00483F" transform="translate(0,0)"/>
<path d="" fill="#004834" transform="translate(0,0)"/>
<path d="" fill="#024C3F" transform="translate(0,0)"/>
<path d="" fill="#004837" transform="translate(0,0)"/>
<path d="" fill="#003022" transform="translate(0,0)"/>
<path d="" fill="#0A4D3C" transform="translate(0,0)"/>
<path d="" fill="#004A36" transform="translate(0,0)"/>
<path d="" fill="#123636" transform="translate(0,0)"/>
<path d="" fill="#123C3A" transform="translate(0,0)"/>
<path d="" fill="#00493F" transform="translate(0,0)"/>
<path d="" fill="#143E3A" transform="translate(0,0)"/>
<path d="" fill="#145044" transform="translate(0,0)"/>
<path d="" fill="#154037" transform="translate(0,0)"/>
<path d="" fill="#034A38" transform="translate(0,0)"/>
<path d="" fill="#133E37" transform="translate(0,0)"/>
<path d="" fill="#12433F" transform="translate(0,0)"/>
<path d="" fill="#12413B" transform="translate(0,0)"/>
</svg>
